<svg width="19" height="19" viewBox="0 0 19 19" fill="none" xmlns="http://www.w3.org/2000/svg">
<path d="M1.50008 18.3333C1.03984 18.3333 0.66137 17.9587 0.718742 17.5021C0.902378 16.0404 1.56667 14.6719 2.61937 13.6192C3.86961 12.369 5.5653 11.6666 7.33341 11.6666C9.10152 11.6666 10.7972 12.369 12.0475 13.6192C13.1002 14.6719 13.7645 16.0404 13.9481 17.5021C14.0055 17.9587 13.627 18.3333 13.1667 18.3333C12.7065 18.3333 12.3405 17.9576 12.2641 17.5037C12.0928 16.4854 11.6088 15.5375 10.8689 14.7977C9.93127 13.86 8.6595 13.3333 7.33341 13.3333C6.00733 13.3333 4.73556 13.86 3.79788 14.7977C3.05805 15.5375 2.57401 16.4854 2.40268 17.5037C2.32633 17.9576 1.96032 18.3333 1.50008 18.3333ZM7.33341 10.8333C4.57091 10.8333 2.33341 8.59575 2.33341 5.83325C2.33341 3.07075 4.57091 0.833252 7.33341 0.833252C10.0959 0.833252 12.3334 3.07075 12.3334 5.83325C12.3334 8.59575 10.0959 10.8333 7.33341 10.8333ZM7.33341 9.16658C9.17508 9.16658 10.6667 7.67492 10.6667 5.83325C10.6667 3.99159 9.17508 2.49992 7.33341 2.49992C5.49175 2.49992 4.00008 3.99159 4.00008 5.83325C4.00008 7.67492 5.49175 9.16658 7.33341 9.16658ZM13.8946 13.0126C14.0836 12.5928 14.5806 12.4014 14.9735 12.6413C15.8256 13.1616 16.5531 13.8686 17.0989 14.713C17.6447 15.5576 17.9905 16.5115 18.1148 17.5022C18.1722 17.9588 17.7937 18.3333 17.3335 18.3333C16.8733 18.3333 16.5072 17.9575 16.431 17.5036C16.3185 16.8346 16.0707 16.1925 15.6993 15.6179C15.3279 15.0432 14.8443 14.5535 14.2804 14.1761C13.898 13.9202 13.7057 13.4322 13.8946 13.0126ZM13.3988 3.7704C13.5399 3.2766 14.0856 3.01131 14.5091 3.30178C14.9868 3.62942 15.4005 4.04635 15.7259 4.53261C16.231 5.28735 16.5004 6.17512 16.5001 7.08325C16.5004 8.22686 16.0732 9.32927 15.3022 10.1739C14.7433 10.7863 14.0331 11.231 13.2508 11.4689C12.7698 11.6152 12.3334 11.2147 12.3334 10.7119C12.3334 10.2866 12.6536 9.93828 13.046 9.77407C13.3876 9.6311 13.7009 9.42349 13.9678 9.1603C14.412 8.72233 14.704 8.15352 14.801 7.53736C14.8981 6.92121 14.7951 6.29017 14.5071 5.73688C14.3308 5.39822 14.0909 5.09962 13.8028 4.85608C13.4844 4.58692 13.2843 4.17129 13.3988 3.7704Z" fill="white"/>
</svg>
