<svg width="24" height="24" viewBox="0 0 24 24" fill="none" xmlns="http://www.w3.org/2000/svg">
<g id="Property 1=&#208;&#149;&#209;&#137;&#208;&#181;" clip-path="url(#clip0_3_3568)">
<path id="Vector" d="M11 11V8C11 7.44772 11.4477 7 12 7V7C12.5523 7 13 7.44772 13 8V11H16C16.5523 11 17 11.4477 17 12V12C17 12.5523 16.5523 13 16 13H13V16C13 16.5523 12.5523 17 12 17V17C11.4477 17 11 16.5523 11 16V13H8C7.44772 13 7 12.5523 7 12V12C7 11.4477 7.44772 11 8 11H11ZM12 22C6.477 22 2 17.523 2 12C2 6.477 6.477 2 12 2C17.523 2 22 6.477 22 12C22 17.523 17.523 22 12 22ZM12 20C14.1217 20 16.1566 19.1571 17.6569 17.6569C19.1571 16.1566 20 14.1217 20 12C20 9.87827 19.1571 7.84344 17.6569 6.34315C16.1566 4.84285 14.1217 4 12 4C9.87827 4 7.84344 4.84285 6.34315 6.34315C4.84285 7.84344 4 9.87827 4 12C4 14.1217 4.84285 16.1566 6.34315 17.6569C7.84344 19.1571 9.87827 20 12 20Z" fill="black"/>
</g>
<defs>
<clipPath id="clip0_3_3568">
<rect width="24" height="24" fill="white"/>
</clipPath>
</defs>
</svg>
