<svg width="24" height="24" viewBox="0 0 24 24" fill="none" xmlns="http://www.w3.org/2000/svg">
<g id="Property 1=&#208;&#148;&#208;&#190;&#208;&#177;&#208;&#176;&#208;&#178;&#208;&#187;&#208;&#181;&#208;&#189;&#208;&#184;&#208;&#181; &#208;&#178; &#208;&#186;&#208;&#189;&#208;&#190;&#208;&#191;&#208;&#186;&#208;&#176;&#209;&#133;" clip-path="url(#clip0_3_3640)">
<path id="Vector" d="M11 11V6C11 5.44772 11.4477 5 12 5V5C12.5523 5 13 5.44772 13 6V11H18C18.5523 11 19 11.4477 19 12V12C19 12.5523 18.5523 13 18 13H13V18C13 18.5523 12.5523 19 12 19V19C11.4477 19 11 18.5523 11 18V13H6C5.44772 13 5 12.5523 5 12V12C5 11.4477 5.44772 11 6 11H11Z" fill="black"/>
</g>
<defs>
<clipPath id="clip0_3_3640">
<rect width="24" height="24" fill="white"/>
</clipPath>
</defs>
</svg>
