<svg width="24" height="24" viewBox="0 0 24 24" fill="none" xmlns="http://www.w3.org/2000/svg">
<g id="Property 1=&#208;&#189;&#208;&#176;&#208;&#183;&#208;&#189;&#208;&#176;&#209;&#135;&#208;&#184;&#209;&#130;&#209;&#140;" clip-path="url(#clip0_3_3559)">
<path id="Vector" d="M17 3C17.5523 3 18 3.44772 18 4V4C18 4.55228 17.5523 5 17 5V5V11L19 14V15C19 15.5523 18.5523 16 18 16H13V22C13 22.5523 12.5523 23 12 23V23C11.4477 23 11 22.5523 11 22V16H6C5.44772 16 5 15.5523 5 15V14L7 11V5V5C6.44772 5 6 4.55228 6 4V4C6 3.44772 6.44772 3 7 3H17ZM9 5V11.606L7.404 14H16.596L15 11.606V5H9Z" fill="black"/>
</g>
<defs>
<clipPath id="clip0_3_3559">
<rect width="24" height="24" fill="white"/>
</clipPath>
</defs>
</svg>
