<svg width="12" height="18" viewBox="0 0 12 18" fill="none" xmlns="http://www.w3.org/2000/svg">
<path d="M10.1666 0.5C10.6269 0.5 11 0.873096 11 1.33333C11 1.79357 10.6269 2.16667 10.1666 2.16667V7.16667L11.8333 9.66667V10.3333C11.8333 10.8856 11.3856 11.3333 10.8333 11.3333H6.83329V16.3333C6.83329 16.7936 6.4602 17.1667 5.99996 17.1667C5.53972 17.1667 5.16663 16.7936 5.16663 16.3333V11.3333H1.16663C0.614341 11.3333 0.166626 10.8856 0.166626 10.3333V9.66667L1.83329 7.16667V2.16667C1.37306 2.16667 0.999959 1.79357 0.999959 1.33333C0.999959 0.873096 1.37306 0.5 1.83329 0.5H10.1666ZM3.49996 2.16667V7.67167L2.16996 9.66667H9.82996L8.49996 7.67167V2.16667H3.49996Z" fill="white"/>
</svg>
