<svg width="26" height="26" viewBox="0 0 26 26" fill="none" xmlns="http://www.w3.org/2000/svg">
<g clip-path="url(#clip0_1530_4042)">
<path d="M23.8332 20.6667C23.8332 21.219 23.3855 21.6667 22.8332 21.6667H3.1665C2.61422 21.6667 2.1665 21.219 2.1665 20.6667V20.5001C2.1665 19.9478 2.61422 19.5001 3.1665 19.5001H3.24984V11.9503C3.24984 6.54666 7.61567 2.16675 12.9998 2.16675C18.384 2.16675 22.7498 6.54666 22.7498 11.9503V19.5001H22.8332C23.3855 19.5001 23.8332 19.9478 23.8332 20.5001V20.6667ZM5.4165 19.5001H20.5832V11.9503C20.5832 7.74375 17.188 4.33341 12.9998 4.33341C8.81167 4.33341 5.4165 7.74375 5.4165 11.9503V19.5001ZM10.2915 22.7501H15.7082C15.7082 23.4684 15.4228 24.1573 14.9149 24.6652C14.407 25.1731 13.7181 25.4584 12.9998 25.4584C12.2815 25.4584 11.5927 25.1731 11.0848 24.6652C10.5768 24.1573 10.2915 23.4684 10.2915 22.7501Z" fill="#020202"/>
</g>
<defs>
<clipPath id="clip0_1530_4042">
<rect width="26" height="26" fill="white"/>
</clipPath>
</defs>
</svg>
