<svg width="300" height="200" viewBox="0 0 300 200" fill="none" xmlns="http://www.w3.org/2000/svg">
<g clip-path="url(#clip0_4243_2974)">
<path d="M153.767 194.01C205.648 194.01 247.706 151.952 247.706 100.071C247.706 48.1907 205.648 6.13306 153.767 6.13306C101.887 6.13306 59.8291 48.1907 59.8291 100.071C59.8291 151.952 101.887 194.01 153.767 194.01Z" stroke="url(#paint0_linear_4243_2974)" stroke-width="0.932333"/>
<path d="M116.372 93.4023H191.636V150.328H116.372V93.4023Z" fill="#3772FF"/>
<path fill-rule="evenodd" clip-rule="evenodd" d="M154.194 94.962C144.77 94.962 136.374 95.3054 129.515 95.7414C123.009 96.155 118.007 101.119 117.54 107.579C117.208 112.175 116.976 117.017 116.976 121.546C116.976 126.076 117.208 130.918 117.54 135.514C118.007 141.974 123.009 146.938 129.515 147.351C137.732 147.871 145.962 148.131 154.194 148.131C163.619 148.131 172.014 147.787 178.873 147.351C185.379 146.938 190.382 141.974 190.849 135.514C191.181 130.918 191.412 126.076 191.412 121.546C191.412 117.017 191.181 112.175 190.849 107.579C190.382 101.119 185.379 96.155 178.873 95.7414C170.657 95.2218 162.427 94.9619 154.194 94.962ZM128.841 85.129C117.049 85.8787 107.785 95.028 106.934 106.812C106.59 111.569 106.343 116.681 106.343 121.546C106.343 126.412 106.59 131.524 106.934 136.28C107.785 148.065 117.049 157.214 128.841 157.964C137.282 158.498 145.737 158.765 154.194 158.764C163.874 158.764 172.496 158.412 179.548 157.964C191.339 157.214 200.603 148.065 201.455 136.28C201.799 131.524 202.046 126.412 202.046 121.546C202.046 116.681 201.799 111.569 201.455 106.812C200.603 95.028 191.339 85.8787 179.548 85.129C171.107 84.5952 162.652 84.3282 154.194 84.3284C144.515 84.3284 135.892 84.6807 128.841 85.129Z" fill="#3772FF"/>
<path fill-rule="evenodd" clip-rule="evenodd" d="M159.511 125.441C162.69 123.602 164.828 120.166 164.828 116.23C164.828 110.357 160.067 105.596 154.194 105.596C148.322 105.596 143.561 110.357 143.561 116.23C143.561 120.166 145.699 123.602 148.877 125.441V132.18C148.877 135.117 151.258 137.497 154.194 137.497C157.131 137.497 159.511 135.117 159.511 132.18V125.441Z" fill="white"/>
<path fill-rule="evenodd" clip-rule="evenodd" d="M127.61 68.3775C127.61 53.6955 139.512 41.7932 154.195 41.7932C168.877 41.7932 180.779 53.6955 180.779 68.3775V89.6452C180.779 92.5815 178.398 94.9619 175.462 94.9619C172.526 94.9619 170.145 92.5815 170.145 89.6452V68.3775C170.145 59.5685 163.004 52.4272 154.195 52.4272C145.385 52.4272 138.244 59.5685 138.244 68.3775V89.6452C138.244 92.5815 135.864 94.9619 132.927 94.9619C129.991 94.9619 127.61 92.5815 127.61 89.6452V68.3775Z" fill="#3772FF"/>
<path d="M258.788 114.059C250.39 118.225 239.242 112.868 239.242 112.868C239.242 112.868 241.72 100.759 250.123 96.5987C258.522 92.4327 269.664 97.7837 269.664 97.7837C269.664 97.7837 267.187 109.893 258.788 114.059Z" fill="url(#paint1_linear_4243_2974)"/>
<path d="M226.183 126.609C223.086 126.609 220.576 129.119 220.576 132.215C220.576 135.312 223.086 137.822 226.183 137.822C229.279 137.822 231.789 135.312 231.789 132.215C231.789 129.119 229.279 126.609 226.183 126.609Z" fill="#3772FF"/>
<path d="M88.1676 14.7481C84.6843 14.7481 81.8606 17.5718 81.8606 21.0551C81.8606 24.5383 84.6843 27.3621 88.1676 27.3621C91.6509 27.3621 94.4746 24.5383 94.4746 21.0551C94.4746 17.5718 91.6509 14.7481 88.1676 14.7481Z" fill="#3772FF"/>
<path d="M48.3397 121.811C45.4369 121.811 43.0837 119.457 43.0837 116.555C43.0837 113.652 45.4369 111.299 48.3397 111.299C51.2425 111.299 53.5957 113.652 53.5957 116.555C53.5957 119.457 51.2425 121.811 48.3397 121.811Z" fill="#3772FF"/>
<path d="M244.45 87.9576C243.095 87.9576 241.997 86.8595 241.997 85.5049C241.997 84.1503 243.095 83.0522 244.45 83.0522C245.804 83.0522 246.902 84.1503 246.902 85.5049C246.902 86.8595 245.804 87.9576 244.45 87.9576Z" fill="#3772FF"/>
<path d="M179.605 180.889C177.863 180.889 176.451 179.477 176.451 177.736C176.451 175.994 177.863 174.582 179.605 174.582C181.347 174.582 182.759 175.994 182.759 177.736C182.759 179.477 181.347 180.889 179.605 180.889Z" fill="#E1E4E5"/>
<path d="M138.919 190.151C136.403 190.151 134.364 188.111 134.364 185.596C134.364 183.08 136.403 181.041 138.919 181.041C141.434 181.041 143.474 183.08 143.474 185.596C143.474 188.111 141.434 190.151 138.919 190.151Z" fill="#E1E4E5"/>
<path d="M221.893 37.2546C219.979 37.2546 218.426 35.7023 218.426 33.7876C218.426 31.8728 219.979 30.3206 221.893 30.3206C223.808 30.3206 225.36 31.8728 225.36 33.7876C225.36 35.7023 223.808 37.2546 221.893 37.2546Z" fill="#E1E4E5"/>
<path d="M82.6476 124.877C80.5189 124.877 78.7933 123.151 78.7933 121.023C78.7933 118.894 80.5189 117.168 82.6476 117.168C84.7763 117.168 86.502 118.894 86.502 121.023C86.502 123.151 84.7763 124.877 82.6476 124.877Z" fill="#E1E4E5"/>
<path d="M117.414 38.8013C117.909 40.6476 116.813 42.5454 114.967 43.0401C113.12 43.5348 111.223 42.4392 110.728 40.5928C110.233 38.7465 111.329 36.8487 113.175 36.354C115.021 35.8593 116.919 36.955 117.414 38.8013Z" fill="#E1E4E5"/>
<path d="M169.255 27.3986C166.712 27.3986 164.651 25.3372 164.651 22.7943C164.651 20.2514 166.712 18.1899 169.255 18.1899C171.798 18.1899 173.859 20.2514 173.859 22.7943C173.859 25.3372 171.798 27.3986 169.255 27.3986Z" fill="#E1E4E5"/>
<path d="M69.1367 164.264C67.1805 164.264 65.5947 162.995 65.5947 161.43C65.5947 159.865 67.1805 158.596 69.1367 158.596C71.0929 158.596 72.6787 159.865 72.6787 161.43C72.6787 162.995 71.0929 164.264 69.1367 164.264Z" fill="#E1E4E5"/>
<path d="M205.659 14.091C206.689 17.9337 204.408 21.8836 200.566 22.9132C196.723 23.9429 192.773 21.6624 191.743 17.8197C190.714 13.977 192.994 10.0271 196.837 8.99746C200.68 7.9678 204.629 10.2482 205.659 14.091Z" fill="#E1E4E5"/>
<path d="M32.328 77.9399H32.4207C32.9693 85.7143 38.7507 85.8339 38.7507 85.8339C38.7507 85.8339 32.3753 85.9583 32.3753 94.9413C32.3753 85.9583 26 85.8339 26 85.8339C26 85.8339 31.7793 85.7143 32.328 77.9399ZM266.605 136.234H266.687C267.174 143.27 272.304 143.378 272.304 143.378C272.304 143.378 266.647 143.491 266.647 151.621C266.647 143.491 260.99 143.378 260.99 143.378C260.99 143.378 266.118 143.27 266.605 136.234Z" fill="#E1E4E5"/>
<path fill-rule="evenodd" clip-rule="evenodd" d="M101.343 77.1411H99.3495C99.1187 77.1409 98.8974 77.0492 98.7342 76.886C98.5709 76.7228 98.4791 76.5016 98.4788 76.2707V74.2764C98.479 74.0456 98.5708 73.8243 98.7341 73.6611C98.8973 73.4979 99.1187 73.4062 99.3495 73.4061H101.343C101.574 73.407 101.795 73.4989 101.958 73.6619C102.121 73.825 102.213 74.0458 102.214 74.2764V76.2707C102.218 76.7487 101.826 77.1411 101.343 77.1411ZM94.4048 77.2978H92.4105C92.1799 77.2969 91.9591 77.2049 91.7961 77.0419C91.633 76.8788 91.541 76.658 91.5402 76.4274V74.4331C91.5403 74.2023 91.6321 73.981 91.7953 73.8179C91.9585 73.6547 92.1797 73.5629 92.4105 73.5627H94.4048C94.6354 73.5635 94.8563 73.6555 95.0194 73.8185C95.1824 73.9816 95.2744 74.2025 95.2752 74.4331V76.4274C95.2743 76.658 95.1823 76.8788 95.0193 77.0419C94.8563 77.2049 94.6354 77.2969 94.4048 77.2978ZM87.5105 77.1411H85.5165C85.2859 77.1402 85.065 77.0482 84.9019 76.8852C84.7388 76.7222 84.6468 76.5013 84.6458 76.2707V74.2764C84.646 74.0456 84.7378 73.8243 84.9011 73.6611C85.0643 73.4979 85.2857 73.4062 85.5165 73.4061H87.5105C87.7411 73.407 87.962 73.4989 88.1251 73.6619C88.2881 73.825 88.3802 74.0458 88.3812 74.2764V76.2707C88.3852 76.7487 87.9928 77.1411 87.5105 77.1411ZM80.5962 77.1411H78.6018C78.3712 77.1402 78.1504 77.0482 77.9873 76.8852C77.8242 76.7222 77.7321 76.5013 77.7312 76.2707V74.2764C77.7313 74.0456 77.8231 73.8243 77.9864 73.6611C78.1496 73.4979 78.371 73.4062 78.6018 73.4061H80.5962C80.8273 73.4062 81.0491 73.4978 81.2129 73.6608C81.3767 73.8239 81.4694 74.0452 81.4705 74.2764V76.2707C81.468 76.5015 81.3749 76.722 81.2114 76.8848C81.0478 77.0476 80.8269 77.1396 80.5962 77.1411ZM73.6815 77.1411H71.6872C71.4559 77.1411 71.2341 77.0495 71.0702 76.8864C70.9063 76.7233 70.8136 76.502 70.8125 76.2707V74.2764C70.8127 74.1618 70.8355 74.0484 70.8796 73.9426C70.9237 73.8368 70.9882 73.7408 71.0694 73.66C71.1507 73.5791 71.247 73.5151 71.353 73.4715C71.459 73.428 71.5726 73.4057 71.6872 73.4061H73.6815C73.9121 73.407 74.1329 73.4989 74.2959 73.662C74.459 73.825 74.551 74.0459 74.5518 74.2764V76.2707C74.551 76.5013 74.459 76.7222 74.2959 76.8852C74.1329 77.0482 73.9121 77.1402 73.6815 77.1411ZM94.1758 69.6017H92.1815C91.9509 69.6009 91.73 69.5089 91.5669 69.3459C91.4038 69.1829 91.3118 68.962 91.3108 68.7314V66.7331C91.3117 66.5024 91.4037 66.2815 91.5668 66.1184C91.7299 65.9553 91.9509 65.8633 92.1815 65.8624H94.1758C94.4066 65.8627 94.6279 65.9545 94.7911 66.1177C94.9543 66.281 95.046 66.5023 95.0462 66.7331V68.7274C95.0468 68.8421 95.0247 68.9557 94.9812 69.0618C94.9378 69.1679 94.8738 69.2644 94.7929 69.3456C94.712 69.4269 94.6158 69.4913 94.5099 69.5353C94.404 69.5793 94.2905 69.6018 94.1758 69.6017ZM87.2612 69.6017H85.2668C85.0363 69.6009 84.8154 69.5089 84.6524 69.3459C84.4894 69.1828 84.3974 68.962 84.3965 68.7314V66.7331C84.3974 66.5025 84.4893 66.2816 84.6524 66.1185C84.8154 65.9554 85.0362 65.8634 85.2668 65.8624H87.2612C87.4918 65.8632 87.7128 65.9552 87.8758 66.1183C88.0389 66.2814 88.1308 66.5024 88.1315 66.7331V68.7274C88.1322 68.8421 88.1102 68.9558 88.0668 69.0619C88.0233 69.1681 87.9593 69.2645 87.8784 69.3458C87.7975 69.4271 87.7013 69.4916 87.5954 69.5355C87.4894 69.5794 87.3758 69.6019 87.2612 69.6017ZM80.3468 69.6017H78.3525C78.1213 69.6017 77.8996 69.5101 77.7358 69.347C77.5719 69.1839 77.4793 68.9626 77.4782 68.7314V66.7331C77.4792 66.5019 77.5718 66.2805 77.7356 66.1173C77.8995 65.9541 78.1213 65.8625 78.3525 65.8624H80.3468C80.5774 65.8634 80.7983 65.9554 80.9613 66.1185C81.1243 66.2816 81.2163 66.5025 81.2172 66.7331V68.7274C81.2171 68.9586 81.1255 69.1803 80.9624 69.3442C80.7993 69.508 80.578 69.6006 80.3468 69.6017ZM87.5105 85.2414H85.5165C85.2859 85.2405 85.0649 85.1485 84.9018 84.9854C84.7387 84.8223 84.6467 84.6014 84.6458 84.3707V82.3768C84.646 82.1459 84.7378 81.9245 84.901 81.7613C85.0643 81.598 85.2856 81.5063 85.5165 81.5061H87.5105C87.7411 81.507 87.9621 81.599 88.1252 81.7621C88.2883 81.9252 88.3803 82.1461 88.3812 82.3768V84.3707C88.3852 84.8491 87.9928 85.2414 87.5105 85.2414ZM94.3005 85.2414H92.3062C92.0755 85.2405 91.8546 85.1485 91.6915 84.9854C91.5284 84.8223 91.4364 84.6014 91.4355 84.3707V82.3768C91.4357 82.1459 91.5275 81.9245 91.6907 81.7613C91.854 81.598 92.0753 81.5063 92.3062 81.5061H94.3005C94.5311 81.507 94.752 81.5991 94.915 81.7622C95.078 81.9253 95.17 82.1462 95.1708 82.3768V84.3707C95.1748 84.8491 94.7825 85.2414 94.3005 85.2414ZM80.5962 85.2414H78.6018C78.3712 85.2405 78.1502 85.1485 77.9872 84.9854C77.8241 84.8223 77.732 84.6014 77.7312 84.3707V82.3768C77.7313 82.1459 77.8231 81.9245 77.9864 81.7613C78.1496 81.598 78.371 81.5063 78.6018 81.5061H80.5962C80.8274 81.5062 81.0492 81.5978 81.213 81.761C81.3769 81.9241 81.4694 82.1455 81.4705 82.3768V84.3707C81.4665 84.8491 81.0742 85.2414 80.5962 85.2414ZM232.387 71.4107H230.392C230.162 71.4106 229.94 71.3188 229.777 71.1556C229.614 70.9925 229.522 70.7712 229.522 70.5404V68.5461C229.522 68.3153 229.614 68.094 229.777 67.9307C229.94 67.7675 230.162 67.6757 230.392 67.6754H232.387C232.617 67.6764 232.838 67.7684 233.001 67.9315C233.164 68.0946 233.256 68.3155 233.257 68.5461V70.5404C233.261 71.0184 232.869 71.4107 232.387 71.4107ZM225.447 71.5674H223.453C223.223 71.5665 223.002 71.4745 222.839 71.3114C222.676 71.1483 222.584 70.9274 222.583 70.6967V68.7024C222.583 68.4716 222.675 68.2503 222.838 68.0872C223.001 67.924 223.223 67.8323 223.453 67.8321H225.447C225.678 67.833 225.899 67.9249 226.062 68.0879C226.225 68.251 226.317 68.4718 226.318 68.7024V70.6967C226.317 70.9274 226.225 71.1483 226.062 71.3114C225.899 71.4745 225.678 71.5665 225.447 71.5674ZM218.554 71.4107H216.559C216.329 71.4099 216.108 71.3179 215.945 71.1549C215.782 70.9919 215.69 70.771 215.689 70.5404V68.5461C215.689 68.3152 215.781 68.0939 215.944 67.9306C216.107 67.7674 216.329 67.6756 216.559 67.6754H218.554C218.784 67.6764 219.005 67.7684 219.168 67.9315C219.331 68.0946 219.423 68.3155 219.424 68.5461V70.5404C219.428 71.0184 219.036 71.4107 218.554 71.4107ZM211.639 71.4107H209.645C209.414 71.41 209.193 71.318 209.03 71.155C208.867 70.9919 208.775 70.771 208.774 70.5404V68.5461C208.775 68.3153 208.866 68.0939 209.029 67.9306C209.193 67.7674 209.414 67.6756 209.645 67.6754H211.639C211.87 67.6755 212.092 67.7671 212.256 67.9303C212.42 68.0935 212.512 68.3149 212.513 68.5461V70.5404C212.511 70.7711 212.418 70.9917 212.254 71.1544C212.091 71.3172 211.87 71.4093 211.639 71.4107ZM204.724 71.4107H202.73C202.499 71.4107 202.277 71.3192 202.113 71.1561C201.949 70.993 201.857 70.7716 201.855 70.5404V68.5461C201.856 68.4315 201.879 68.318 201.923 68.2122C201.967 68.1064 202.031 68.0104 202.112 67.9295C202.194 67.8486 202.29 67.7846 202.396 67.741C202.502 67.6974 202.616 67.6751 202.73 67.6754H204.724C204.955 67.6764 205.176 67.7684 205.339 67.9315C205.502 68.0946 205.594 68.3155 205.595 68.5461V70.5404C205.594 70.771 205.502 70.9918 205.339 71.1549C205.176 71.3179 204.955 71.4099 204.724 71.4107ZM225.219 63.8714H223.224C222.994 63.8706 222.773 63.7786 222.61 63.6155C222.447 63.4524 222.355 63.2314 222.354 63.0007V61.0024C222.355 60.7718 222.447 60.5509 222.61 60.3879C222.773 60.2248 222.994 60.1329 223.224 60.1321H225.219C225.45 60.1323 225.671 60.2241 225.834 60.3873C225.997 60.5505 226.089 60.7717 226.089 61.0024V62.9967C226.09 63.1114 226.068 63.2251 226.024 63.3312C225.981 63.4374 225.917 63.5339 225.836 63.6152C225.755 63.6965 225.659 63.761 225.553 63.8049C225.447 63.8489 225.334 63.8715 225.219 63.8714ZM218.304 63.8714H216.31C216.079 63.8704 215.858 63.7784 215.695 63.6153C215.532 63.4522 215.44 63.2313 215.439 63.0007V61.0024C215.44 60.7719 215.532 60.551 215.695 60.388C215.858 60.2249 216.079 60.133 216.31 60.1321H218.304C218.535 60.133 218.756 60.2249 218.919 60.388C219.082 60.551 219.174 60.7719 219.174 61.0024V62.9967C219.175 63.1115 219.153 63.2252 219.11 63.3313C219.066 63.4375 219.002 63.534 218.921 63.6154C218.841 63.6967 218.744 63.7612 218.638 63.8051C218.532 63.8491 218.419 63.8716 218.304 63.8714ZM211.39 63.8714H209.395C209.164 63.8713 208.942 63.7797 208.779 63.6165C208.615 63.4534 208.522 63.232 208.521 63.0007V61.0024C208.522 60.7712 208.615 60.5499 208.779 60.3869C208.943 60.2238 209.164 60.1322 209.395 60.1321H211.39C211.62 60.1329 211.841 60.2248 212.004 60.3879C212.167 60.5509 212.259 60.7718 212.26 61.0024V62.9967C212.26 63.228 212.169 63.4499 212.006 63.6138C211.842 63.7777 211.621 63.8704 211.39 63.8714ZM218.554 79.5107H216.559C216.329 79.5099 216.108 79.4179 215.945 79.2549C215.782 79.0919 215.69 78.871 215.689 78.6404V76.6461C215.689 76.4153 215.781 76.194 215.944 76.0308C216.107 75.8677 216.329 75.7759 216.559 75.7757H218.554C218.784 75.7766 219.005 75.8686 219.168 76.0316C219.331 76.1947 219.423 76.4155 219.424 76.6461V78.6404C219.428 79.1184 219.036 79.5107 218.554 79.5107ZM225.343 79.5107H223.349C223.119 79.5099 222.898 79.4179 222.735 79.2549C222.572 79.0919 222.479 78.871 222.478 78.6404V76.6461C222.479 76.4153 222.571 76.194 222.734 76.0308C222.897 75.8677 223.118 75.7759 223.349 75.7757H225.343C225.574 75.7766 225.795 75.8686 225.958 76.0316C226.121 76.1946 226.213 76.4155 226.214 76.6461V78.6404C226.218 79.1184 225.825 79.5107 225.343 79.5107ZM211.639 79.5107H209.645C209.414 79.51 209.193 79.418 209.03 79.255C208.867 79.0919 208.775 78.871 208.774 78.6404V76.6461C208.775 76.4153 208.866 76.194 209.03 76.0309C209.193 75.8677 209.414 75.7759 209.645 75.7757H211.639C211.87 75.7758 212.092 75.8674 212.256 76.0305C212.42 76.1936 212.512 76.4149 212.513 76.6461V78.6404C212.511 78.8712 212.418 79.0917 212.254 79.2544C212.091 79.4172 211.87 79.5093 211.639 79.5107Z" fill="#E1E4E5"/>
</g>
<defs>
<linearGradient id="paint0_linear_4243_2974" x1="157.793" y1="300.333" x2="151.971" y2="-199.726" gradientUnits="userSpaceOnUse">
<stop stop-color="white"/>
<stop offset="1" stop-color="#EEEEEE"/>
</linearGradient>
<linearGradient id="paint1_linear_4243_2974" x1="226.537" y1="127.055" x2="295.809" y2="72.26" gradientUnits="userSpaceOnUse">
<stop stop-color="white"/>
<stop offset="1" stop-color="#EEEEEE"/>
</linearGradient>
<clipPath id="clip0_4243_2974">
<rect width="300" height="200" fill="white"/>
</clipPath>
</defs>
</svg>
