<svg width="24" height="24" viewBox="0 0 24 24" fill="none" xmlns="http://www.w3.org/2000/svg">
<g id="Property 1=&#208;&#158;&#209;&#130;&#208;&#188;&#208;&#181;&#208;&#189;&#208;&#184;&#209;&#130;&#209;&#140;" clip-path="url(#clip0_3_3571)">
<path id="Vector" d="M12 22C6.477 22 2 17.523 2 12C2 6.477 6.477 2 12 2C17.523 2 22 6.477 22 12C22 17.523 17.523 22 12 22ZM12 20C14.1217 20 16.1566 19.1571 17.6569 17.6569C19.1571 16.1566 20 14.1217 20 12C20 9.87827 19.1571 7.84344 17.6569 6.34315C16.1566 4.84285 14.1217 4 12 4C9.87827 4 7.84344 4.84285 6.34315 6.34315C4.84285 7.84344 4 9.87827 4 12C4 14.1217 4.84285 16.1566 6.34315 17.6569C7.84344 19.1571 9.87827 20 12 20ZM12 10.586L14.1209 8.46436C14.5114 8.07371 15.1449 8.07393 15.5355 8.4645V8.4645C15.9261 8.85507 15.9263 9.4886 15.5356 9.87911L13.414 12L15.5356 14.1209C15.9263 14.5114 15.9261 15.1449 15.5355 15.5355V15.5355C15.1449 15.9261 14.5114 15.9263 14.1209 15.5356L12 13.414L9.87911 15.5356C9.4886 15.9263 8.85507 15.9261 8.4645 15.5355V15.5355C8.07393 15.1449 8.07371 14.5114 8.46436 14.1209L10.586 12L8.46436 9.87911C8.07371 9.4886 8.07393 8.85507 8.4645 8.4645V8.4645C8.85507 8.07393 9.4886 8.07371 9.87911 8.46436L12 10.586Z" fill="black"/>
</g>
<defs>
<clipPath id="clip0_3_3571">
<rect width="24" height="24" fill="white"/>
</clipPath>
</defs>
</svg>
