<svg width="24" height="24" viewBox="0 0 24 24" fill="none" xmlns="http://www.w3.org/2000/svg">
<g id="Property 1=&#208;&#154;&#208;&#190;&#208;&#180;" clip-path="url(#clip0_3_3634)">
<path id="Vector" d="M23.2929 11.2929C23.6834 11.6834 23.6834 12.3166 23.2929 12.7071L19.05 16.95C18.6595 17.3405 18.0265 17.3405 17.636 16.95V16.95C17.2455 16.5595 17.2455 15.9265 17.636 15.536L21.172 12L17.636 8.464C17.2455 8.07353 17.2455 7.44047 17.636 7.05V7.05C18.0265 6.65953 18.6595 6.65953 19.05 7.05L23.2929 11.2929ZM2.828 12L6.364 15.536C6.75446 15.9265 6.75447 16.5595 6.364 16.95V16.95C5.97353 17.3405 5.34047 17.3405 4.95 16.95L0.707107 12.7071C0.316583 12.3166 0.316582 11.6834 0.707107 11.2929L4.94996 7.05004C5.34041 6.65959 5.97348 6.65971 6.36379 7.05029V7.05029C6.75387 7.44065 6.7538 8.07328 6.36362 8.46354L2.828 12ZM10.0275 20.3422C9.88369 20.7371 9.50825 21 9.08794 21V21C8.39396 21 7.91105 20.3103 8.14842 19.6582L13.9725 3.65784C14.1163 3.26288 14.4917 3 14.9121 3V3C15.606 3 16.089 3.68969 15.8516 4.34181L10.0275 20.3422Z" fill="black"/>
</g>
<defs>
<clipPath id="clip0_3_3634">
<rect width="24" height="24" fill="white"/>
</clipPath>
</defs>
</svg>
