<svg width="24" height="24" viewBox="0 0 24 24" fill="none" xmlns="http://www.w3.org/2000/svg">
<g clip-path="url(#clip0_3_3767)">
<path d="M3.99998 16H20V5H3.99998V16ZM13 18V20H16C16.5523 20 17 20.4477 17 21C17 21.5523 16.5523 22 16 22H7.99998C7.4477 22 6.99998 21.5523 6.99998 21C6.99998 20.4477 7.44769 20 7.99998 20H11V18H2.99198C2.86067 17.9992 2.7308 17.9725 2.60982 17.9215C2.48884 17.8704 2.37913 17.7959 2.28697 17.7024C2.19482 17.6088 2.12203 17.498 2.07278 17.3763C2.02353 17.2546 1.99879 17.1243 1.99998 16.993V4.007C1.99998 3.451 2.45498 3 2.99198 3H21.008C21.556 3 22 3.449 22 4.007V16.993C22 17.549 21.545 18 21.008 18H13Z" fill="#292929"/>
</g>
<defs>
<clipPath id="clip0_3_3767">
<rect width="24" height="24" fill="white"/>
</clipPath>
</defs>
</svg>
