<svg width="24" height="24" viewBox="0 0 24 24" fill="none" xmlns="http://www.w3.org/2000/svg">
<g id="Property 1=&#209;&#131;&#208;&#180;&#208;&#176;&#208;&#187;&#208;&#184;&#209;&#130;&#209;&#140;" clip-path="url(#clip0_3_3556)">
<path id="Vector" d="M17 6H21C21.5523 6 22 6.44772 22 7V7C22 7.55228 21.5523 8 21 8H20V21C20 21.2652 19.8946 21.5196 19.7071 21.7071C19.5196 21.8946 19.2652 22 19 22H5C4.73478 22 4.48043 21.8946 4.29289 21.7071C4.10536 21.5196 4 21.2652 4 21V8H3C2.44772 8 2 7.55228 2 7V7C2 6.44772 2.44772 6 3 6H7V3C7 2.73478 7.10536 2.48043 7.29289 2.29289C7.48043 2.10536 7.73478 2 8 2H16C16.2652 2 16.5196 2.10536 16.7071 2.29289C16.8946 2.48043 17 2.73478 17 3V6ZM18 8H6V20H18V8ZM9 12C9 11.4477 9.44772 11 10 11V11C10.5523 11 11 11.4477 11 12V16C11 16.5523 10.5523 17 10 17V17C9.44772 17 9 16.5523 9 16V12ZM13 12C13 11.4477 13.4477 11 14 11V11C14.5523 11 15 11.4477 15 12V16C15 16.5523 14.5523 17 14 17V17C13.4477 17 13 16.5523 13 16V12ZM9 4V6H15V4H9Z" fill="black"/>
</g>
<defs>
<clipPath id="clip0_3_3556">
<rect width="24" height="24" fill="white"/>
</clipPath>
</defs>
</svg>
