<svg width="16" height="18" viewBox="0 0 16 18" fill="none" xmlns="http://www.w3.org/2000/svg">
<path d="M0.928589 4.28574H15.0714M4.85716 4.28574V2.71431C4.85716 2.29754 5.02272 1.89784 5.31742 1.60314C5.61212 1.30844 6.01182 1.14288 6.42859 1.14288H9.57145C9.98822 1.14288 10.3879 1.30844 10.6826 1.60314C10.9773 1.89784 11.1429 2.29754 11.1429 2.71431V4.28574M13.5 4.28574V15.2857C13.5 15.7025 13.3345 16.1022 13.0398 16.3969C12.7451 16.6916 12.3454 16.8572 11.9286 16.8572H4.07145C3.65468 16.8572 3.25498 16.6916 2.96028 16.3969C2.66558 16.1022 2.50002 15.7025 2.50002 15.2857V4.28574H13.5Z" stroke="#868686" stroke-linecap="round" stroke-linejoin="round"/>
</svg>
