<svg width="22" height="22" viewBox="0 0 22 22" fill="none" xmlns="http://www.w3.org/2000/svg">
<path d="M16.4166 4.49996H20.8333C21.3856 4.49996 21.8333 4.94767 21.8333 5.49996V5.66663C21.8333 6.21891 21.3856 6.66663 20.8333 6.66663H19.6666V20.75C19.6666 21.0373 19.5525 21.3128 19.3493 21.516C19.1462 21.7192 18.8706 21.8333 18.5833 21.8333H3.41663C3.12931 21.8333 2.85376 21.7192 2.65059 21.516C2.44743 21.3128 2.33329 21.0373 2.33329 20.75V6.66663H1.16663C0.614341 6.66663 0.166626 6.21891 0.166626 5.66663V5.49996C0.166626 4.94767 0.614341 4.49996 1.16663 4.49996H5.58329V1.24996C5.58329 0.962641 5.69743 0.687091 5.90059 0.483927C6.10376 0.280763 6.37931 0.166626 6.66663 0.166626H15.3333C15.6206 0.166626 15.8962 0.280763 16.0993 0.483927C16.3025 0.687091 16.4166 0.962641 16.4166 1.24996V4.49996ZM17.5 6.66663H4.49996V19.6666H17.5V6.66663ZM7.74996 10.9166C7.74996 10.3643 8.19767 9.91663 8.74996 9.91663H8.91663C9.46891 9.91663 9.91663 10.3643 9.91663 10.9166V15.4166C9.91663 15.9689 9.46891 16.4166 8.91663 16.4166H8.74996C8.19767 16.4166 7.74996 15.9689 7.74996 15.4166V10.9166ZM12.0833 10.9166C12.0833 10.3643 12.531 9.91663 13.0833 9.91663H13.25C13.8022 9.91663 14.25 10.3643 14.25 10.9166V15.4166C14.25 15.9689 13.8022 16.4166 13.25 16.4166H13.0833C12.531 16.4166 12.0833 15.9689 12.0833 15.4166V10.9166ZM7.74996 2.33329V4.49996H14.25V2.33329H7.74996Z" fill="#C91E1E"/>
</svg>
