<svg width="18" height="20" viewBox="0 0 18 20" fill="none" xmlns="http://www.w3.org/2000/svg">
<path d="M3.414 14L13.556 3.85796L12.142 2.44396L2 12.586V14H3.414ZM4.243 16H1C0.447716 16 0 15.5522 0 15V11.757L11.435 0.321961C11.6225 0.13449 11.8768 0.0291748 12.142 0.0291748C12.4072 0.0291748 12.6615 0.13449 12.849 0.321961L15.678 3.15096C15.8655 3.33849 15.9708 3.5928 15.9708 3.85796C15.9708 4.12313 15.8655 4.37743 15.678 4.56496L4.243 16ZM0 19C0 18.4477 0.447715 18 1 18H17C17.5523 18 18 18.4477 18 19C18 19.5522 17.5523 20 17 20H1C0.447716 20 0 19.5522 0 19Z" fill="#36AC0C"/>
</svg>
