<svg width="24" height="24" viewBox="0 0 24 24" fill="none" xmlns="http://www.w3.org/2000/svg">
<g id="Property 1=&#209;&#128;&#208;&#181;&#208;&#180;&#208;&#176;&#208;&#186;&#209;&#130;&#208;&#184;&#209;&#128;&#208;&#190;&#208;&#178;&#208;&#176;&#209;&#130;&#209;&#140;" clip-path="url(#clip0_3_3553)">
<path id="Vector" d="M6.414 16L16.556 5.85802L15.142 4.44402L5 14.586V16H6.414ZM7.243 18H4C3.44772 18 3 17.5523 3 17V13.757L14.435 2.32202C14.6225 2.13455 14.8768 2.02924 15.142 2.02924C15.4072 2.02924 15.6615 2.13455 15.849 2.32202L18.678 5.15102C18.8655 5.33855 18.9708 5.59286 18.9708 5.85802C18.9708 6.12319 18.8655 6.37749 18.678 6.56502L7.243 18ZM3 21C3 20.4477 3.44772 20 4 20H20C20.5523 20 21 20.4477 21 21V21C21 21.5523 20.5523 22 20 22H4C3.44772 22 3 21.5523 3 21V21Z" fill="black"/>
</g>
<defs>
<clipPath id="clip0_3_3553">
<rect width="24" height="24" fill="white"/>
</clipPath>
</defs>
</svg>
