<svg width="24" height="24" viewBox="0 0 24 24" fill="none" xmlns="http://www.w3.org/2000/svg">
<g id="Property 1=&#208;&#158;&#209;&#136;&#208;&#184;&#208;&#177;&#208;&#186;&#208;&#176;" clip-path="url(#clip0_3_3665)">
<path id="Vector" d="M12 22C6.477 22 2 17.523 2 12C2 6.477 6.477 2 12 2C17.523 2 22 6.477 22 12C22 17.523 17.523 22 12 22ZM12 15C11.4477 15 11 15.4477 11 16V16C11 16.5523 11.4477 17 12 17V17C12.5523 17 13 16.5523 13 16V16C13 15.4477 12.5523 15 12 15V15ZM12 7C11.4477 7 11 7.44772 11 8V12C11 12.5523 11.4477 13 12 13V13C12.5523 13 13 12.5523 13 12V8C13 7.44772 12.5523 7 12 7V7Z" fill="black"/>
</g>
<defs>
<clipPath id="clip0_3_3665">
<rect width="24" height="24" fill="white"/>
</clipPath>
</defs>
</svg>
