<svg width="24" height="24" viewBox="0 0 24 24" fill="none" xmlns="http://www.w3.org/2000/svg">
<g clip-path="url(#clip0_3_2057)">
<path d="M4 19C4 18.4477 4.44772 18 5 18C5.55228 18 6 18.4477 6 19V20H18V4H6V5C6 5.55228 5.55228 6 5 6C4.44772 6 4 5.55228 4 5V3C4 2.73478 4.10536 2.48043 4.29289 2.29289C4.48043 2.10536 4.73478 2 5 2H19C19.2652 2 19.5196 2.10536 19.7071 2.29289C19.8946 2.48043 20 2.73478 20 3V21C20 21.2652 19.8946 21.5196 19.7071 21.7071C19.5196 21.8946 19.2652 22 19 22H5C4.73478 22 4.48043 21.8946 4.29289 21.7071C4.10536 21.5196 4 21.2652 4 21V19ZM6 11H12C12.5523 11 13 11.4477 13 12C13 12.5523 12.5523 13 12 13H6V13.9194C6 14.7579 5.03007 15.2241 4.37531 14.7002L1.97609 12.7809C1.47568 12.3805 1.47568 11.6195 1.97609 11.2191L4.3753 9.29976C5.03007 8.77595 6 9.24212 6 10.0806V11Z" fill="#3772FF"/>
</g>
<defs>
<clipPath id="clip0_3_2057">
<rect width="24" height="24" fill="white"/>
</clipPath>
</defs>
</svg>
