<svg width="20" height="20" viewBox="0 0 20 20" fill="none" xmlns="http://www.w3.org/2000/svg">
<g id="&#208;&#145;&#208;&#181;&#208;&#183; &#208;&#183;&#208;&#176;&#208;&#187;&#208;&#184;&#208;&#178;&#208;&#186;&#208;&#184;" clip-path="url(#clip0_10600_950)">
<path id="Vector" d="M2.5 16.6667C2.5 16.2064 2.8731 15.8333 3.33333 15.8333H16.6667C17.1269 15.8333 17.5 16.2064 17.5 16.6667C17.5 17.1269 17.1269 17.5 16.6667 17.5H3.33333C2.8731 17.5 2.5 17.1269 2.5 16.6667ZM10.8333 4.85667V13.3333C10.8333 13.7936 10.4602 14.1667 10 14.1667C9.53976 14.1667 9.16667 13.7936 9.16667 13.3333V4.85667L4.69666 9.32741C4.37128 9.65284 3.84369 9.65287 3.51829 9.32746C3.19292 9.00209 3.19291 8.47457 3.51826 8.14918L9.29289 2.37386C9.68341 1.9833 10.3166 1.98328 10.7071 2.37382L16.4816 8.14829C16.807 8.4737 16.807 9.00131 16.4816 9.32672C16.1562 9.6521 15.6287 9.65214 15.3033 9.32682L10.8333 4.85834V4.85667Z" fill="#3772FF"/>
</g>
<defs>
<clipPath id="clip0_10600_950">
<rect width="20" height="20" fill="white"/>
</clipPath>
</defs>
</svg>
