<svg width="22" height="22" viewBox="0 0 22 22" fill="none" xmlns="http://www.w3.org/2000/svg">
<path d="M22 11C22 11 17.875 3.4375 11 3.4375C4.125 3.4375 0 11 0 11C0 11 4.125 18.5625 11 18.5625C17.875 18.5625 22 11 22 11ZM1.61246 11C1.69074 10.8807 1.77999 10.7481 1.88 10.6046C2.34047 9.9439 3.01993 9.06524 3.89415 8.19102C5.66642 6.41875 8.08585 4.8125 11 4.8125C13.9142 4.8125 16.3336 6.41875 18.1059 8.19102C18.9801 9.06524 19.6595 9.9439 20.12 10.6046C20.22 10.7481 20.3093 10.8807 20.3875 11C20.3093 11.1193 20.22 11.2519 20.12 11.3954C19.6595 12.0561 18.9801 12.9348 18.1059 13.809C16.3336 15.5813 13.9142 17.1875 11 17.1875C8.08585 17.1875 5.66642 15.5813 3.89415 13.809C3.01993 12.9348 2.34047 12.0561 1.88 11.3954C1.77999 11.2519 1.69074 11.1193 1.61246 11Z" fill="#868686"/>
<path d="M11 7.5625C9.10152 7.5625 7.5625 9.10152 7.5625 11C7.5625 12.8985 9.10152 14.4375 11 14.4375C12.8985 14.4375 14.4375 12.8985 14.4375 11C14.4375 9.10152 12.8985 7.5625 11 7.5625ZM6.1875 11C6.1875 8.34213 8.34213 6.1875 11 6.1875C13.6579 6.1875 15.8125 8.34213 15.8125 11C15.8125 13.6579 13.6579 15.8125 11 15.8125C8.34213 15.8125 6.1875 13.6579 6.1875 11Z" fill="#868686"/>
</svg>
