<svg width="24" height="24" viewBox="0 0 24 24" fill="none" xmlns="http://www.w3.org/2000/svg">
<g id="Property 1=&#208;&#160;&#208;&#176;&#208;&#188;&#208;&#181;&#209;&#128;&#209;&#139; &#209;&#136;&#209;&#128;&#208;&#184;&#209;&#132;&#209;&#130;&#208;&#190;&#208;&#178;">
<g clip-path="url(#clip0_3_3613)">
<path id="Vector" d="M11.246 15H4.75398L3.00541 19.3714C2.85355 19.7511 2.48586 20 2.07696 20V20C1.36952 20 0.885777 19.2855 1.14852 18.6287L6.74853 4.62861C6.9004 4.24895 7.2681 4 7.67701 4H8.32294C8.73185 4 9.09956 4.24895 9.25142 4.62861L14.8514 18.6287C15.1142 19.2855 14.6304 20 13.923 20V20C13.5141 20 13.1464 19.7511 12.9945 19.3714L11.246 15ZM10.446 13L7.99998 6.885L5.55398 13H10.446ZM21 12.535V12.535C21 12.2395 21.2395 12 21.535 12H22C22.5523 12 23 12.4477 23 13V19C23 19.5523 22.5523 20 22 20H21.535C21.2395 20 21 19.7605 21 19.465V19.465C20.3919 19.8157 19.7022 20.0002 19.0002 20C18.2982 19.9998 17.6086 19.8148 17.0008 19.4637C16.3929 19.1125 15.8881 18.6076 15.5372 17.9996C15.1863 17.3916 15.0015 16.702 15.0015 16C15.0015 15.298 15.1863 14.6084 15.5372 14.0004C15.8881 13.3924 16.3929 12.8875 17.0008 12.5363C17.6086 12.1852 18.2982 12.0002 19.0002 12C19.7022 11.9998 20.3919 12.1843 21 12.535ZM19 18C19.5304 18 20.0391 17.7893 20.4142 17.4142C20.7893 17.0391 21 16.5304 21 16C21 15.4696 20.7893 14.9609 20.4142 14.5858C20.0391 14.2107 19.5304 14 19 14C18.4695 14 17.9608 14.2107 17.5858 14.5858C17.2107 14.9609 17 15.4696 17 16C17 16.5304 17.2107 17.0391 17.5858 17.4142C17.9608 17.7893 18.4695 18 19 18Z" fill="black"/>
</g>
</g>
<defs>
<clipPath id="clip0_3_3613">
<rect width="24" height="24" fill="white"/>
</clipPath>
</defs>
</svg>
