<svg width="24" height="24" viewBox="0 0 24 24" fill="none" xmlns="http://www.w3.org/2000/svg">
<g id="Property 1=&#208;&#147;&#209;&#128;&#209;&#131;&#208;&#191;&#208;&#191;&#209;&#139;" clip-path="url(#clip0_3_3656)">
<path id="Vector" d="M12 11C13.3261 11 14.5979 11.5268 15.5355 12.4645C16.4732 13.4021 17 14.6739 17 16V21C17 21.5523 16.5523 22 16 22H8C7.44772 22 7 21.5523 7 21V16C7 14.6739 7.52678 13.4021 8.46447 12.4645C9.40215 11.5268 10.6739 11 12 11ZM5.288 14.006C5.12886 14.5428 5.03485 15.0968 5.008 15.656L5 16V21C5 21.5523 4.55228 22 4 22H3C2.44772 22 2 21.5523 2 21V17.5C1.9998 16.6376 2.31803 15.8054 2.89363 15.1632C3.46924 14.521 4.2617 14.1139 5.119 14.02L5.288 14.006ZM18.712 14.006C19.6019 14.0602 20.4376 14.452 21.0486 15.1012C21.6596 15.7505 21.9999 16.6084 22 17.5V21C22 21.5523 21.5523 22 21 22H20C19.4477 22 19 21.5523 19 21V16C19 15.307 18.9 14.638 18.712 14.006ZM5.5 8C6.16304 8 6.79893 8.26339 7.26777 8.73223C7.73661 9.20107 8 9.83696 8 10.5C8 11.163 7.73661 11.7989 7.26777 12.2678C6.79893 12.7366 6.16304 13 5.5 13C4.83696 13 4.20107 12.7366 3.73223 12.2678C3.26339 11.7989 3 11.163 3 10.5C3 9.83696 3.26339 9.20107 3.73223 8.73223C4.20107 8.26339 4.83696 8 5.5 8ZM18.5 8C19.163 8 19.7989 8.26339 20.2678 8.73223C20.7366 9.20107 21 9.83696 21 10.5C21 11.163 20.7366 11.7989 20.2678 12.2678C19.7989 12.7366 19.163 13 18.5 13C17.837 13 17.2011 12.7366 16.7322 12.2678C16.2634 11.7989 16 11.163 16 10.5C16 9.83696 16.2634 9.20107 16.7322 8.73223C17.2011 8.26339 17.837 8 18.5 8ZM12 2C13.0609 2 14.0783 2.42143 14.8284 3.17157C15.5786 3.92172 16 4.93913 16 6C16 7.06087 15.5786 8.07828 14.8284 8.82843C14.0783 9.57857 13.0609 10 12 10C10.9391 10 9.92172 9.57857 9.17157 8.82843C8.42143 8.07828 8 7.06087 8 6C8 4.93913 8.42143 3.92172 9.17157 3.17157C9.92172 2.42143 10.9391 2 12 2Z" fill="#1F6ED4"/>
</g>
<defs>
<clipPath id="clip0_3_3656">
<rect width="24" height="24" fill="white"/>
</clipPath>
</defs>
</svg>
