<svg width="24" height="24" viewBox="0 0 24 24" fill="none" xmlns="http://www.w3.org/2000/svg">
<g id="Property 1=&#208;&#152;&#208;&#188;&#208;&#191;&#208;&#190;&#209;&#128;&#209;&#130;" clip-path="url(#clip0_3_3643)">
<path id="Vector" d="M3 20C3 19.4477 3.44772 19 4 19H20C20.5523 19 21 19.4477 21 20V20C21 20.5523 20.5523 21 20 21H4C3.44772 21 3 20.5523 3 20V20ZM13 5.828V16C13 16.5523 12.5523 17 12 17V17C11.4477 17 11 16.5523 11 16V5.828L5.63599 11.1929C5.24554 11.5834 4.61243 11.5834 4.22195 11.1929V11.1929C3.83151 10.8025 3.83149 10.1695 4.22191 9.77901L11.2929 2.70719C11.6834 2.31663 12.3166 2.31661 12.7071 2.70715L19.7779 9.77794C20.1684 10.1684 20.1684 10.8016 19.7779 11.1921V11.1921C19.3875 11.5825 18.7545 11.5826 18.3639 11.1922L13 5.83V5.828Z" fill="black"/>
</g>
<defs>
<clipPath id="clip0_3_3643">
<rect width="24" height="24" fill="white"/>
</clipPath>
</defs>
</svg>
