<svg width="24" height="24" viewBox="0 0 24 24" fill="none" xmlns="http://www.w3.org/2000/svg">
<g id="Property 1=&#208;&#154;&#209;&#131;&#209;&#128;&#209;&#129;&#208;&#184;&#208;&#178;" clip-path="url(#clip0_3_3622)">
<path id="Vector" d="M15 19C15 19.5523 14.5523 20 14 20H8C7.44772 20 7 19.5523 7 19V19C7 18.4477 7.44772 18 8 18H9.927L12.043 6H10C9.44772 6 9 5.55228 9 5V5C9 4.44772 9.44772 4 10 4H16C16.5523 4 17 4.44772 17 5V5C17 5.55228 16.5523 6 16 6H14.073L11.957 18H14C14.5523 18 15 18.4477 15 19V19Z" fill="black"/>
</g>
<defs>
<clipPath id="clip0_3_3622">
<rect width="24" height="24" fill="white"/>
</clipPath>
</defs>
</svg>
