<svg width="36" height="36" viewBox="0 0 36 36" fill="none" xmlns="http://www.w3.org/2000/svg">
<g clip-path="url(#clip0_3_1376)">
<path d="M16.5 16.5V9C16.5 8.17157 17.1716 7.5 18 7.5C18.8284 7.5 19.5 8.17157 19.5 9V16.5H27C27.8284 16.5 28.5 17.1716 28.5 18C28.5 18.8284 27.8284 19.5 27 19.5H19.5V27C19.5 27.8284 18.8284 28.5 18 28.5C17.1716 28.5 16.5 27.8284 16.5 27V19.5H9C8.17157 19.5 7.5 18.8284 7.5 18C7.5 17.1716 8.17157 16.5 9 16.5H16.5Z" fill="white"/>
</g>
<defs>
<clipPath id="clip0_3_1376">
<rect width="36" height="36" fill="white"/>
</clipPath>
</defs>
</svg>
