<svg width="24" height="24" viewBox="0 0 24 24" fill="none" xmlns="http://www.w3.org/2000/svg">
<g id="Property 1=&#208;&#183;&#208;&#176;&#208;&#179;&#209;&#128;&#209;&#131;&#208;&#183;&#208;&#186;&#208;&#176;" clip-path="url(#clip0_3_3580)">
<path id="Vector" d="M17.6192 4.96964C18.0506 5.3144 18.0475 5.95249 17.657 6.34295V6.34295C17.2666 6.73342 16.6371 6.72662 16.195 6.39569C15.1769 5.63352 13.9647 5.15917 12.6865 5.03321C11.0748 4.87439 9.45794 5.2793 8.11134 6.17896C6.76474 7.07862 5.77174 8.41736 5.30154 9.96708C4.83134 11.5168 4.91302 13.1816 5.53268 14.6779C6.15234 16.1741 7.27162 17.4092 8.69983 18.1727C10.128 18.9362 11.7768 19.1809 13.3652 18.8651C14.9536 18.5492 16.3833 17.6924 17.4108 16.4406C18.2256 15.4478 18.7475 14.2554 18.9286 12.9965C19.0073 12.4499 19.4477 12 20 12V12C20.5522 12 21.0057 12.4491 20.9445 12.998C20.7523 14.7205 20.0656 16.3587 18.957 17.7095C17.6361 19.319 15.7979 20.4208 13.7557 20.827C11.7136 21.2332 9.5937 20.9187 7.75737 19.9372C5.92104 18.9556 4.48187 17.3677 3.68506 15.444C2.88825 13.5203 2.78311 11.3798 3.38756 9.38727C3.992 7.39473 5.26863 5.67343 6.99992 4.51663C8.73121 3.35984 10.81 2.83913 12.8822 3.04324C14.6213 3.21453 16.2653 3.88742 17.6192 4.96964Z" fill="black"/>
</g>
<defs>
<clipPath id="clip0_3_3580">
<rect width="24" height="24" fill="white"/>
</clipPath>
</defs>
</svg>
