<svg width="24" height="24" viewBox="0 0 24 24" fill="none" xmlns="http://www.w3.org/2000/svg">
<g clip-path="url(#clip0_10043_784)">
<path d="M14.9999 19.0007C14.4476 19.0003 14.0002 18.5513 14.0006 17.999C14.001 17.447 14.4486 16.9988 15.0006 16.9988H16.001C16.6595 17.0017 17.312 16.8745 17.9212 16.6245C18.5303 16.3746 19.0841 16.0067 19.5507 15.5422C20.0173 15.0776 20.3876 14.5254 20.6402 13.9174C20.8929 13.3093 21.0229 12.6573 21.0229 11.9989C21.0229 11.3404 20.8929 10.6885 20.6402 10.0804C20.3876 9.47236 20.0173 8.92019 19.5507 8.45562C19.0841 7.99104 18.5303 7.6232 17.9212 7.37323C17.312 7.12325 16.6595 6.99605 16.001 6.99893L15.0003 6.99928C14.4482 6.99948 14.0005 6.55207 14.0003 5.99997C14.0001 5.44745 14.4481 4.99955 15.0006 4.99994L16.001 5.00065C17.8576 5.00065 19.6382 5.73818 20.951 7.051C22.2639 8.36383 23.0014 10.1444 23.0014 12.001C23.0014 13.8576 22.2639 15.6382 20.951 16.951C19.6382 18.2638 17.8576 19.0014 16.001 19.0014L14.9999 19.0007ZM9.99981 17.9992C10.0002 18.5517 9.55231 18.9998 8.99979 18.9996L8.00012 18.9992C6.14351 18.9992 4.36294 18.2617 3.05012 16.9489C1.73729 15.6361 0.999758 13.8555 0.999759 11.9989C0.999759 10.1423 1.73729 8.3617 3.05012 7.04888C4.36294 5.73606 6.14351 4.99853 8.00012 4.99853L9.00017 4.99888C9.55259 4.99907 10.0002 5.4479 9.99981 6.00032C9.99942 6.55233 9.55182 7.00035 8.99981 7.00035L7.99941 7.00034C7.34096 6.99746 6.68843 7.12466 6.07928 7.37464C5.47012 7.62462 4.91634 7.99245 4.44973 8.45703C3.98311 8.9216 3.61286 9.47377 3.36021 10.0818C3.10757 10.6899 2.97751 11.3418 2.97751 12.0003C2.97751 12.6587 3.10757 13.3107 3.36021 13.9188C3.61286 14.5268 3.98311 15.079 4.44973 15.5436C4.91634 16.0081 5.47012 16.376 6.07928 16.626C6.68843 16.8759 7.34096 17.0031 7.99941 17.0002L9.00014 17.0002C9.55197 17.0002 9.99942 17.4474 9.99981 17.9992ZM16.0002 10.999C16.5525 10.999 17.0002 11.4473 17.0002 11.9996C17.0002 12.5519 16.5524 13.0001 16.0001 13.0001L8.00055 12.9995C7.44843 12.9995 7.00082 12.5517 7.00062 11.9996C7.00043 11.4472 7.4482 10.999 8.00062 10.999L16.0002 10.999Z" fill="#292929"/>
</g>
<defs>
<clipPath id="clip0_10043_784">
<rect width="24" height="24" fill="white"/>
</clipPath>
</defs>
</svg>
