<svg width="24" height="24" viewBox="0 0 24 24" fill="none" xmlns="http://www.w3.org/2000/svg">
<g id="Property 1=&#208;&#161;&#209;&#129;&#209;&#139;&#208;&#187;&#208;&#186;&#208;&#176;" clip-path="url(#clip0_3_3595)">
<path id="Vector" d="M14.9999 19.0007C14.4476 19.0003 14.0002 18.5514 14.0006 17.9991V17.9991C14.001 17.4471 14.4486 16.9989 15.0006 16.9989H16.001C16.6594 17.0018 17.3119 16.8746 17.9211 16.6246C18.5303 16.3746 19.084 16.0068 19.5506 15.5422C20.0173 15.0776 20.3875 14.5255 20.6402 13.9174C20.8928 13.3094 21.0229 12.6574 21.0229 11.9989C21.0229 11.3405 20.8928 10.6885 20.6402 10.0805C20.3875 9.47242 20.0173 8.92025 19.5506 8.45568C19.084 7.9911 18.5303 7.62327 17.9211 7.37329C17.3119 7.12331 16.6594 6.99611 16.001 6.99899L15.0002 6.99935C14.4481 6.99954 14.0004 6.55213 14.0002 6.00003V6.00003C14 5.44751 14.4481 4.99961 15.0006 5L16.001 5.00071C17.8576 5.00071 19.6381 5.73824 20.951 7.05107C22.2638 8.36389 23.0013 10.1445 23.0013 12.0011C23.0013 13.8577 22.2638 15.6382 20.951 16.9511C19.6381 18.2639 17.8576 19.0014 16.001 19.0014L14.9999 19.0007ZM9.99975 17.9993C10.0001 18.5518 9.55224 18.9999 8.99973 18.9997L8.00005 18.9993C6.14344 18.9993 4.36288 18.2618 3.05005 16.9489C1.73723 15.6361 0.999698 13.8556 0.999698 11.9989C0.999698 10.1423 1.73723 8.36177 3.05006 7.04894C4.36288 5.73612 6.14344 4.99859 8.00005 4.99859L9.00011 4.99894C9.55253 4.99914 10.0001 5.44796 9.99975 6.00038V6.00038C9.99936 6.55239 9.55176 7.00041 8.99975 7.00041L7.99935 7.00041C7.3409 6.99752 6.68837 7.12472 6.07922 7.3747C5.47006 7.62468 4.91628 7.99252 4.44967 8.45709C3.98305 8.92167 3.61279 9.47383 3.36015 10.0819C3.10751 10.6899 2.97745 11.3419 2.97745 12.0004C2.97745 12.6588 3.1075 13.3108 3.36015 13.9188C3.61279 14.5269 3.98305 15.0791 4.44967 15.5436C4.91628 16.0082 5.47006 16.376 6.07922 16.626C6.68837 16.876 7.3409 17.0032 7.99935 17.0003L9.00008 17.0003C9.55191 17.0003 9.99936 17.4474 9.99975 17.9993V17.9993ZM16.0001 10.9991C16.5524 10.9991 17.0001 11.4473 17.0001 11.9996V11.9996C17.0001 12.5519 16.5524 13.0002 16 13.0001L8.00049 12.9996C7.44837 12.9995 7.00075 12.5518 7.00056 11.9997V11.9997C7.00036 11.4473 7.44814 10.9991 8.00056 10.9991L16.0001 10.9991Z" fill="black"/>
</g>
<defs>
<clipPath id="clip0_3_3595">
<rect width="24" height="24" fill="white"/>
</clipPath>
</defs>
</svg>
