<svg width="24" height="24" viewBox="0 0 24 24" fill="none" xmlns="http://www.w3.org/2000/svg">
<g id="Property 1=&#208;&#161;&#208;&#191;&#208;&#184;&#209;&#129;&#208;&#190;&#208;&#186; &#208;&#189;&#209;&#131;&#208;&#188;&#208;&#181;&#209;&#128;&#208;&#190;&#208;&#178;&#208;&#176;&#208;&#189;&#208;&#189;&#209;&#139;&#208;&#185;" clip-path="url(#clip0_3_3616)">
<path id="Vector" d="M8 5C8 4.44772 8.44772 4 9 4H20C20.5523 4 21 4.44772 21 5V5C21 5.55228 20.5523 6 20 6H9C8.44772 6 8 5.55228 8 5V5ZM4 3C4.55228 3 5 3.44772 5 4V6H5.5C5.77614 6 6 6.22386 6 6.5V6.5C6 6.77614 5.77614 7 5.5 7H3.5C3.22386 7 3 6.77614 3 6.5V6.5C3 6.22386 3.22386 6 3.5 6H4V4H3.5C3.22386 4 3 3.77614 3 3.5V3.5C3 3.22386 3.22386 3 3.5 3H4ZM4 14C3.44772 14 3 13.5523 3 13V12.5C3 11.9477 3.44772 11.5 4 11.5H5V11H3.5C3.22386 11 3 10.7761 3 10.5V10.5C3 10.2239 3.22386 10 3.5 10H5C5.55228 10 6 10.4477 6 11V11.5C6 12.0523 5.55228 12.5 5 12.5H4V13H5.5C5.77614 13 6 13.2239 6 13.5V13.5C6 13.7761 5.77614 14 5.5 14H4ZM5 19.5H3.5C3.22386 19.5 3 19.2761 3 19V19C3 18.7239 3.22386 18.5 3.5 18.5H5V18H3.5C3.22386 18 3 17.7761 3 17.5V17.5C3 17.2239 3.22386 17 3.5 17H5C5.55228 17 6 17.4477 6 18V20C6 20.5523 5.55228 21 5 21H3.5C3.22386 21 3 20.7761 3 20.5V20.5C3 20.2239 3.22386 20 3.5 20H5V19.5ZM8 12C8 11.4477 8.44772 11 9 11H20C20.5523 11 21 11.4477 21 12V12C21 12.5523 20.5523 13 20 13H9C8.44772 13 8 12.5523 8 12V12ZM8 19C8 18.4477 8.44772 18 9 18H20C20.5523 18 21 18.4477 21 19V19C21 19.5523 20.5523 20 20 20H9C8.44772 20 8 19.5523 8 19V19Z" fill="black"/>
</g>
<defs>
<clipPath id="clip0_3_3616">
<rect width="24" height="24" fill="white"/>
</clipPath>
</defs>
</svg>
