<svg width="28" height="28" viewBox="0 0 28 28" fill="none" xmlns="http://www.w3.org/2000/svg">
<rect width="28" height="28" rx="5" fill="#EBEBEB"/>
<g clip-path="url(#clip0_10043_873)">
<path d="M17.1067 12.0716L15.9283 10.8933L8.16667 18.6549V19.8333H9.345L17.1067 12.0716ZM18.285 10.8933L19.4633 9.71495L18.285 8.53661L17.1067 9.71495L18.285 10.8933ZM10.035 21.4999H6.5V17.9641L17.6958 6.76828C17.8521 6.61205 18.064 6.52429 18.285 6.52429C18.506 6.52429 18.7179 6.61205 18.8742 6.76828L21.2317 9.12578C21.3879 9.28205 21.4757 9.49398 21.4757 9.71495C21.4757 9.93592 21.3879 10.1478 21.2317 10.3041L10.0358 21.4999H10.035Z" fill="#ADADAD"/>
</g>
<defs>
<clipPath id="clip0_10043_873">
<rect x="4" y="4" width="20" height="20" fill="white"/>
</clipPath>
</defs>
</svg>
