<svg width="264" height="462" viewBox="0 0 264 462" fill="none" xmlns="http://www.w3.org/2000/svg">
<path opacity="0.64" d="M132.435 461.968C205.024 461.968 263.87 450.111 263.87 435.485C263.87 420.859 205.024 409.002 132.435 409.002C59.8454 409.002 1 420.859 1 435.485C1 450.111 59.8454 461.968 132.435 461.968Z" fill="#68CCE9"/>
<path d="M69.429 431.23C71.2739 425.239 76.9204 422.048 86.089 419.36C91.9032 417.681 99.2828 416.897 110.855 414.545C116.502 413.426 120.471 411.186 120.471 411.186V417.625C120.471 417.625 82.1756 425.183 76.1936 435.093C73.2865 439.964 74.181 451.89 87.878 453.122C83.685 453.738 76.8086 452.674 73.1188 448.923C68.5345 444.276 67.3046 438.061 69.429 431.23Z" fill="#282323" stroke="black" stroke-width="4" stroke-miterlimit="10" stroke-linecap="round" stroke-linejoin="round"/>
<path d="M120.471 417.625C120.471 417.625 97.5496 421.88 85.3062 427.143C74.5722 431.79 74.9076 436.605 74.6281 441.532C74.4604 444.388 76.473 451.442 84.6353 452.674C94.3629 454.13 105.824 452.562 120.471 443.212C120.471 420.312 120.471 417.625 120.471 417.625Z" fill="#442C2A"/>
<path opacity="0.37" d="M74.6281 441.532C74.8517 437.557 74.684 433.638 80.2746 429.831C80.051 431.23 79.9951 432.574 79.9392 433.974C79.7715 436.829 86.6479 433.134 94.8102 434.31C103.308 435.597 108.339 445.34 120.471 438.789C120.471 440.189 120.471 441.644 120.471 443.156C105.824 452.506 94.3629 454.018 84.6353 452.618C76.473 451.442 74.4604 444.332 74.6281 441.532Z" fill="#442C2A"/>
<path d="M120.471 417.625C120.471 417.625 97.5496 421.88 85.3062 427.143C74.5722 431.79 74.9076 436.605 74.6281 441.532C74.4604 444.388 76.473 451.442 84.6353 452.674C94.3629 454.13 105.824 452.562 120.471 443.212C120.471 420.312 120.471 417.625 120.471 417.625Z" stroke="black" stroke-width="4" stroke-miterlimit="10" stroke-linecap="round" stroke-linejoin="round"/>
<path d="M99.2267 430.782C97.3818 431.79 97.8291 441.588 102.302 442.932" stroke="black" stroke-width="4" stroke-miterlimit="10" stroke-linecap="round" stroke-linejoin="round"/>
<path d="M106.215 430.054C104.314 432.742 105.656 439.069 109.066 440.636" stroke="black" stroke-width="4" stroke-miterlimit="10" stroke-linecap="round" stroke-linejoin="round"/>
<path d="M112.644 427.815C110.743 430.502 112.085 436.829 115.495 438.397" stroke="black" stroke-width="4" stroke-miterlimit="10" stroke-linecap="round" stroke-linejoin="round"/>
<path d="M178.613 398.812C166.537 407.211 149.374 412.026 131.428 412.026C113.538 412.026 96.3195 407.211 84.2438 398.812C78.7091 394.949 69.4287 386.887 69.4287 376.137C69.4287 365.387 78.7091 357.324 84.2438 353.461C96.3195 345.063 113.483 340.248 131.428 340.248C149.318 340.248 166.537 345.063 178.613 353.461C184.148 357.324 193.428 365.387 193.428 376.137C193.428 386.887 184.148 394.949 178.613 398.812Z" fill="#151E28"/>
<path d="M233.904 385.095C233.681 386.215 233.457 387.279 233.122 388.399C224.4 420.256 182.359 444.444 131.764 444.444C81.0574 444.444 38.9043 420.144 30.3507 388.175C30.1271 387.279 29.9035 386.383 29.7357 385.487C29.5121 383.807 29.568 382.128 29.9035 380.448C31.972 371.042 43.3768 365.611 55.3966 368.298C63.2793 370.034 69.429 374.905 72.1683 380.672C72.4479 381.904 72.8951 383.136 73.3983 384.311C76.3054 391.03 82.1196 396.069 86.033 398.869C97.7174 407.267 114.433 412.082 131.764 412.082C149.151 412.082 165.811 407.267 177.495 398.869C181.464 396.013 187.335 390.918 190.186 384.199C190.633 383.136 191.024 381.96 191.304 380.84C193.987 375.017 200.193 370.146 208.132 368.354C220.151 365.667 231.556 371.154 233.625 380.504C234.016 381.96 234.072 383.527 233.904 385.095Z" fill="#2A3749"/>
<path opacity="0.67" d="M233.625 380.392C233.569 380.112 233.513 379.888 233.401 379.608C233.233 380.504 233.01 381.456 232.73 382.352C224.121 414.209 182.023 438.397 131.484 438.397C80.7777 438.397 38.6247 414.097 30.0711 382.128C29.9592 381.792 29.9033 381.456 29.7915 381.064C29.5679 382.52 29.512 383.975 29.7356 385.375C29.9033 386.271 30.127 387.167 30.3506 388.063C38.9042 420.032 81.0573 444.332 131.764 444.332C182.359 444.332 224.4 420.144 233.121 388.286C233.401 387.223 233.68 386.103 233.904 384.983C234.072 383.527 234.016 381.96 233.625 380.392Z" fill="#151E28"/>
<path d="M233.904 385.095C233.681 386.215 233.457 387.279 233.122 388.399C224.4 420.256 182.359 444.444 131.764 444.444C81.0574 444.444 38.9043 420.144 30.3507 388.175C30.1271 387.279 29.9035 386.383 29.7357 385.487C29.5121 383.807 29.568 382.128 29.9035 380.448C31.972 371.042 43.3768 365.611 55.3966 368.298C63.2793 370.034 69.429 374.905 72.1683 380.672C72.4479 381.904 72.8951 383.136 73.3983 384.311C76.3054 391.03 82.1196 396.069 86.033 398.869C97.7174 407.267 114.433 412.082 131.764 412.082C149.151 412.082 165.811 407.267 177.495 398.869C181.464 396.013 187.335 390.918 190.186 384.199C190.633 383.136 191.024 381.96 191.304 380.84C193.987 375.017 200.193 370.146 208.132 368.354C220.151 365.667 231.556 371.154 233.625 380.504C234.016 381.96 234.072 383.527 233.904 385.095Z" stroke="black" stroke-width="4" stroke-miterlimit="10" stroke-linecap="round" stroke-linejoin="round"/>
<path d="M132.435 394.949C160.254 394.949 182.806 387.279 182.806 377.817C182.806 368.354 160.254 360.684 132.435 360.684C104.615 360.684 82.0635 368.354 82.0635 377.817C82.0635 387.279 104.615 394.949 132.435 394.949Z" fill="#9B2121"/>
<path d="M132.435 394.949C160.254 394.949 182.806 387.279 182.806 377.817C182.806 368.354 160.254 360.684 132.435 360.684C104.615 360.684 82.0635 368.354 82.0635 377.817C82.0635 387.279 104.615 394.949 132.435 394.949Z" stroke="black" stroke-width="4" stroke-miterlimit="10" stroke-linecap="round" stroke-linejoin="round"/>
<path d="M189.794 340.416H73.7336C64.8445 340.416 57.9681 332.633 59.0862 323.787L64.2296 282.635C65.6831 270.877 75.6344 262.087 87.4864 262.087H176.153C187.949 262.087 197.901 270.877 199.41 282.635L204.553 323.787C205.56 332.633 198.683 340.416 189.794 340.416Z" fill="#F1534D"/>
<path d="M189.794 340.416H73.7336C64.8445 340.416 57.9681 332.633 59.0862 323.787L64.2296 282.635C65.6831 270.877 75.6344 262.087 87.4864 262.087H176.153C187.949 262.087 197.901 270.877 199.41 282.635L204.553 323.787C205.56 332.633 198.683 340.416 189.794 340.416Z" stroke="black" stroke-width="4" stroke-miterlimit="10" stroke-linecap="round" stroke-linejoin="round"/>
<path d="M86.3124 296.856L85.1943 310.909" stroke="black" stroke-width="4" stroke-miterlimit="10" stroke-linecap="round" stroke-linejoin="round"/>
<path d="M178.054 296.856L179.172 310.909" stroke="black" stroke-width="4" stroke-miterlimit="10" stroke-linecap="round" stroke-linejoin="round"/>
<path d="M189.794 340.416H73.7336C64.8445 340.416 57.9681 332.633 59.0862 323.787L64.2296 282.635C65.6831 270.877 75.6344 262.087 87.4864 262.087H176.153C187.949 262.087 197.901 270.877 199.41 282.635L204.553 323.787C205.56 332.633 198.683 340.416 189.794 340.416Z" fill="#F1534D"/>
<g opacity="0.24">
<path opacity="0.24" d="M64.1735 287.002C65.6271 275.244 75.5784 266.454 87.4304 266.454H176.097C187.893 266.454 197.845 275.244 199.354 287.002L204.442 327.818C204.609 326.53 204.665 325.187 204.497 323.787L199.354 282.635C197.901 270.877 187.949 262.087 176.097 262.087H87.4304C75.6343 262.087 65.683 270.877 64.1735 282.635L59.0302 323.787C58.8625 325.131 58.8625 326.474 59.0861 327.818L64.1735 287.002Z" fill="#9B2121"/>
<path opacity="0.24" d="M92.5739 266.454C92.5739 266.454 99.4503 267.686 100.009 271.493C100.457 274.572 100.401 276.588 101.575 277.82C102.749 279.052 105.488 281.571 111.023 281.571C107.948 278.492 107.892 267.686 107.054 267.686C106.271 267.686 104.258 262.311 104.258 262.311L101.575 261.079C101.631 261.079 91.7353 262.311 92.5739 266.454Z" fill="#9B2121"/>
<path opacity="0.24" d="M166.034 266.454C166.034 266.454 159.158 267.686 158.598 271.493C158.151 274.572 158.207 276.588 157.033 277.82C155.859 278.996 153.12 281.571 147.585 281.571C150.66 278.492 150.716 267.686 151.554 267.686C152.337 267.686 154.35 262.311 154.35 262.311L157.033 261.079C156.977 261.079 166.873 262.311 166.034 266.454Z" fill="#9B2121"/>
</g>
<path d="M189.794 340.416H73.7336C64.8445 340.416 57.9681 332.633 59.0862 323.787L64.2296 282.635C65.6831 270.877 75.6344 262.087 87.4864 262.087H176.153C187.949 262.087 197.901 270.877 199.41 282.635L204.553 323.787C205.56 332.633 198.683 340.416 189.794 340.416Z" stroke="black" stroke-width="4" stroke-miterlimit="10" stroke-linecap="round" stroke-linejoin="round"/>
<path d="M86.3124 296.856L85.1943 310.909" stroke="black" stroke-width="4" stroke-miterlimit="10" stroke-linecap="round" stroke-linejoin="round"/>
<path d="M178.054 296.856L179.172 310.909" stroke="black" stroke-width="4" stroke-miterlimit="10" stroke-linecap="round" stroke-linejoin="round"/>
<path d="M116.837 238.683L98.444 237.731L89.8345 238.683C89.8345 238.683 84.0762 242.994 84.0762 244.17C84.0762 245.346 84.6352 254.92 84.6352 254.92C84.6352 254.92 98.2204 256.768 99.6739 258.167C101.127 259.567 109.737 267.63 109.737 267.63L118.067 264.382L122.428 252.737L116.837 238.683Z" fill="#9B2121"/>
<path d="M113.595 231.573H92.3504C83.7968 231.573 76.8086 238.515 76.8086 247.138C76.8086 255.704 83.7409 262.703 92.3504 262.703H95.1457C99.6741 262.703 103.308 266.342 103.308 270.877V271.717C103.308 277.148 107.725 281.571 113.147 281.571V271.493C113.259 271.493 113.371 271.605 113.371 271.717V270.877C113.371 260.799 105.209 252.625 95.1457 252.625H92.3504C89.3315 252.625 86.8717 250.161 86.8717 247.138C86.8717 244.114 89.3315 241.651 92.3504 241.651H113.595V231.573Z" fill="#F1534D"/>
<path d="M112.309 264.55C109.737 257.608 103.029 252.569 95.2019 252.569H92.4066C89.3877 252.569 86.9278 250.105 86.9278 247.082C86.9278 244.058 89.3877 241.595 92.4066 241.595H113.651V231.517H92.4066C83.853 231.517 76.8647 238.459 76.8647 247.082C76.8647 255.648 83.7971 262.647 92.4066 262.647H95.2019C99.7303 262.647 103.364 266.286 103.364 270.821V271.661C103.364 277.092 107.781 281.515 113.204 281.515" stroke="black" stroke-width="4" stroke-miterlimit="10" stroke-linecap="round" stroke-linejoin="round"/>
<path d="M141.156 238.683L159.549 237.732L168.159 238.683C168.159 238.683 173.917 242.995 173.917 244.17C173.917 245.346 173.358 254.92 173.358 254.92C173.358 254.92 159.773 256.768 158.319 258.168C156.866 259.623 148.256 267.63 148.256 267.63L139.926 264.383L135.565 252.737L141.156 238.683Z" fill="#9B2121"/>
<path d="M144.398 231.573H165.643C174.196 231.573 181.185 238.515 181.185 247.138C181.185 255.704 174.252 262.703 165.643 262.703H162.847C158.319 262.703 154.685 266.342 154.685 270.877V271.717C154.685 277.148 150.269 281.571 144.846 281.571V271.493C144.734 271.493 144.622 271.605 144.622 271.717V270.877C144.622 260.799 152.784 252.625 162.847 252.625H165.643C168.662 252.625 171.122 250.161 171.122 247.138C171.122 244.114 168.662 241.651 165.643 241.651H144.398V231.573Z" fill="#F1534D"/>
<path d="M145.74 264.55C148.312 257.608 155.021 252.569 162.847 252.569H165.643C168.662 252.569 171.122 250.105 171.122 247.082C171.122 244.058 168.662 241.595 165.643 241.595H144.398V231.517H165.643C174.196 231.517 181.185 238.459 181.185 247.082C181.185 255.648 174.252 262.647 165.643 262.647H162.847C158.319 262.647 154.685 266.286 154.685 270.821V271.661C154.685 277.092 150.269 281.515 144.846 281.515" stroke="black" stroke-width="4" stroke-miterlimit="10" stroke-linecap="round" stroke-linejoin="round"/>
<path d="M130.031 273.621C142.073 273.621 151.834 263.845 151.834 251.785C151.834 239.725 142.073 229.949 130.031 229.949C117.989 229.949 108.228 239.725 108.228 251.785C108.228 263.845 117.989 273.621 130.031 273.621Z" fill="#F46262"/>
<path d="M109.178 245.346C115.216 249.209 122.372 251.505 130.031 251.505C137.69 251.505 144.846 249.265 150.884 245.346C148.145 236.388 139.871 229.893 130.031 229.893C120.248 229.949 111.918 236.444 109.178 245.346Z" fill="#F1534D"/>
<path d="M130.031 273.621C142.073 273.621 151.834 263.845 151.834 251.785C151.834 239.725 142.073 229.949 130.031 229.949C117.989 229.949 108.228 239.725 108.228 251.785C108.228 263.845 117.989 273.621 130.031 273.621Z" stroke="black" stroke-width="4" stroke-miterlimit="10" stroke-linecap="round" stroke-linejoin="round"/>
<path d="M130.031 264.438C122.931 264.438 117.172 258.671 117.172 251.561V241.931C117.172 240.139 118.626 238.683 120.415 238.683H139.702C141.491 238.683 142.945 240.139 142.945 241.931V251.561C142.889 258.671 137.131 264.438 130.031 264.438Z" fill="#FFC897"/>
<path d="M139.702 238.683H120.415C118.626 238.683 117.172 240.251 117.172 242.155V250.049C121.198 251.561 125.502 252.401 130.031 252.401C134.559 252.401 138.864 251.561 142.889 250.049V242.155C142.889 240.251 141.436 238.683 139.702 238.683Z" fill="#E5A973"/>
<path d="M130.031 264.438C122.931 264.438 117.172 258.671 117.172 251.561V241.931C117.172 240.139 118.626 238.683 120.415 238.683H139.702C141.491 238.683 142.945 240.139 142.945 241.931V251.561C142.889 258.671 137.131 264.438 130.031 264.438Z" stroke="black" stroke-width="4" stroke-miterlimit="10" stroke-linecap="round" stroke-linejoin="round"/>
<path d="M143.952 409.506H131.988V447.747H143.952V409.506Z" fill="#607691"/>
<path d="M143.952 409.506H131.988V447.747H143.952V409.506Z" stroke="black" stroke-width="4" stroke-miterlimit="10" stroke-linecap="round" stroke-linejoin="round"/>
<path d="M73.3422 384.199C72.8391 383.024 72.4477 381.848 72.1123 380.56C72.7273 381.792 73.1186 382.968 73.3422 384.199Z" stroke="black" stroke-width="4" stroke-miterlimit="10" stroke-linecap="round" stroke-linejoin="round"/>
<path d="M190.242 384.087C190.465 382.912 190.857 381.792 191.36 380.728C191.08 381.904 190.689 383.024 190.242 384.087Z" stroke="black" stroke-width="4" stroke-miterlimit="10" stroke-linecap="round" stroke-linejoin="round"/>
<path d="M190.074 381.4H73.51C69.3729 381.4 65.8509 378.321 65.2918 374.177L58.024 317.181C57.4091 312.253 61.2666 307.83 66.2422 307.83H197.342C202.317 307.83 206.175 312.197 205.56 317.181L198.292 374.177C197.733 378.265 194.211 381.4 190.074 381.4Z" fill="#B5B5B5"/>
<path opacity="0.21" d="M198.236 370.594C197.733 374.737 194.211 377.817 190.018 377.817H73.5099C69.3729 377.817 65.8508 374.737 65.2918 370.594L58.1358 314.437C57.9681 315.333 57.9122 316.229 58.024 317.18L65.2918 374.177C65.7949 378.321 69.317 381.4 73.5099 381.4H190.074C194.211 381.4 197.733 378.321 198.292 374.177L205.56 317.18C205.672 316.229 205.616 315.333 205.448 314.437L198.236 370.594Z" fill="#7E7E7E"/>
<path opacity="0.21" d="M58.0799 317.684C58.7508 313.877 62.1052 310.854 66.1863 310.854H197.286C201.423 310.854 204.721 313.821 205.392 317.684L205.448 317.124C206.063 312.197 202.205 307.774 197.23 307.774H66.2422C61.2666 307.774 57.4091 312.141 58.024 317.124L58.0799 317.684Z" fill="#7E7E7E"/>
<path d="M190.074 381.4H73.51C69.3729 381.4 65.8509 378.321 65.2918 374.177L58.024 317.181C57.4091 312.253 61.2666 307.83 66.2422 307.83H197.342C202.317 307.83 206.175 312.197 205.56 317.181L198.292 374.177C197.733 378.265 194.211 381.4 190.074 381.4Z" stroke="black" stroke-width="4" stroke-miterlimit="10" stroke-linecap="round" stroke-linejoin="round"/>
<path opacity="0.66" d="M137.299 341.144C134.783 341.144 132.77 339.128 132.77 336.609C132.77 336.441 132.77 336.273 132.826 336.105C132.379 336.049 131.932 335.993 131.484 335.993C127.403 335.993 124.049 339.352 124.049 343.439C124.049 347.526 127.403 350.886 131.484 350.886C135.565 350.886 138.92 347.526 138.92 343.439C138.92 342.599 138.752 341.76 138.528 340.976C138.137 341.032 137.746 341.144 137.299 341.144Z" fill="#B5B5B5"/>
<path d="M194.993 431.23C193.148 425.239 187.502 422.048 178.333 419.36C172.519 417.681 165.14 416.897 153.567 414.545C147.921 413.426 143.951 411.186 143.951 411.186V417.625C143.951 417.625 182.247 425.183 188.229 435.093C191.136 439.964 190.241 451.89 176.544 453.122C180.737 453.738 187.614 452.674 191.304 448.923C195.888 444.276 197.118 438.061 194.993 431.23Z" fill="#282323" stroke="black" stroke-width="4" stroke-miterlimit="10" stroke-linecap="round" stroke-linejoin="round"/>
<path d="M143.951 417.625C143.951 417.625 166.873 421.88 179.116 427.143C189.85 431.79 189.515 436.605 189.794 441.532C189.962 444.388 187.949 451.442 179.787 452.674C170.059 454.13 158.599 452.562 143.951 443.212C143.951 420.312 143.951 417.625 143.951 417.625Z" fill="#442C2A"/>
<path opacity="0.37" d="M189.794 441.532C189.57 437.557 189.738 433.638 184.148 429.831C184.371 431.23 184.427 432.574 184.483 433.974C184.651 436.829 182.638 443.884 174.476 445.116C165.978 446.403 156.083 445.34 143.951 438.789C143.951 440.189 143.951 441.644 143.951 443.156C158.599 452.506 170.059 454.018 179.787 452.618C188.005 451.442 189.962 444.332 189.794 441.532Z" fill="#442C2A"/>
<path d="M143.951 417.625C143.951 417.625 166.873 421.88 179.116 427.143C189.85 431.79 189.515 436.605 189.794 441.532C189.962 444.388 187.949 451.442 179.787 452.674C170.059 454.13 158.599 452.562 143.951 443.212C143.951 420.312 143.951 417.625 143.951 417.625Z" stroke="black" stroke-width="4" stroke-miterlimit="10" stroke-linecap="round" stroke-linejoin="round"/>
<path d="M165.195 430.782C167.04 431.79 166.593 441.588 162.121 442.932" stroke="black" stroke-width="4" stroke-miterlimit="10" stroke-linecap="round" stroke-linejoin="round"/>
<path d="M158.207 430.054C160.108 432.742 158.766 439.069 155.356 440.636" stroke="black" stroke-width="4" stroke-miterlimit="10" stroke-linecap="round" stroke-linejoin="round"/>
<path d="M151.778 427.815C153.679 430.502 152.337 436.829 148.927 438.397" stroke="black" stroke-width="4" stroke-miterlimit="10" stroke-linecap="round" stroke-linejoin="round"/>
<path d="M110.408 275.86V305.646" stroke="black" stroke-width="6" stroke-miterlimit="10" stroke-linecap="round" stroke-linejoin="round"/>
<path d="M148.145 275.86V296.856" stroke="black" stroke-width="6" stroke-miterlimit="10" stroke-linecap="round" stroke-linejoin="round"/>
<path d="M148.145 303.183C150.707 303.183 152.785 301.102 152.785 298.536C152.785 295.969 150.707 293.889 148.145 293.889C145.582 293.889 143.504 295.969 143.504 298.536C143.504 301.102 145.582 303.183 148.145 303.183Z" fill="black"/>
<path d="M148.144 299.88C149.194 299.88 150.045 299.027 150.045 297.976C150.045 296.925 149.194 296.073 148.144 296.073C147.095 296.073 146.244 296.925 146.244 297.976C146.244 299.027 147.095 299.88 148.144 299.88Z" fill="#7E7E7E"/>
<path d="M130.031 248.146C110.575 248.146 94.7539 232.357 94.7539 212.816V171.832H165.307V212.816C165.307 232.301 149.542 248.146 130.031 248.146Z" fill="#FFC897"/>
<path d="M130.031 243.274C110.575 243.274 94.7539 227.486 94.7539 207.945V212.816C94.7539 232.301 110.519 248.146 130.031 248.146C149.486 248.146 165.307 232.357 165.307 212.816V207.945C165.307 227.43 149.542 243.274 130.031 243.274Z" fill="#E5A973"/>
<path d="M130.031 248.146C110.575 248.146 94.7539 232.357 94.7539 212.816V171.832H165.307V212.816C165.307 232.301 149.542 248.146 130.031 248.146Z" stroke="black" stroke-width="4" stroke-miterlimit="10" stroke-linecap="round" stroke-linejoin="round"/>
<path d="M165.587 175.92C165.475 174.016 165.363 172.056 165.307 170.153C141.827 171.273 118.235 171.105 94.81 169.033C94.6423 171.217 94.5305 173.4 94.3628 175.584C95.425 176.536 96.5431 177.543 97.6053 178.495C98.4998 178.943 99.6739 179.559 100.736 180.119C105.432 182.582 111.973 185.718 118.235 186.95C120.527 187.397 122.931 187.621 125.391 187.565C135.957 187.453 144.846 183.254 148.592 181.519C149.151 181.239 149.598 181.015 149.877 180.959C150.101 180.847 150.325 180.791 150.66 180.791C151.331 180.791 152.114 180.959 153.064 181.127C154.294 181.407 155.748 181.687 157.369 181.575C159.214 181.463 160.891 180.903 162.512 179.839C163.463 178.495 164.525 177.207 165.587 175.92Z" fill="#E5A973"/>
<path d="M148.591 154.644C148.591 154.644 120.359 135.999 96.9902 156.827C92.6296 160.691 90.8965 166.233 90.8965 171.328V198.315H94.8099V178.719C94.8099 177.263 95.8162 176.144 97.0461 176.144C99.0587 176.144 109.96 181.966 119.185 183.59C133.105 185.998 145.796 179.559 148.535 178.607C153.232 176.927 157.033 182.75 162.959 176.2H163.183C164.413 176.2 165.419 177.375 165.419 178.775V198.371H169.333V171.496C169.221 164.89 161.617 148.317 148.591 154.644Z" fill="#231A17"/>
<g opacity="0.34">
<path opacity="0.34" d="M94.7542 194.62H90.8408V198.315H94.7542V194.62Z" fill="#231A17"/>
<path opacity="0.34" d="M169.221 194.62H165.308V198.315H169.221V194.62Z" fill="#231A17"/>
</g>
<path d="M148.591 154.644C148.591 154.644 120.359 135.999 96.9902 156.827C92.6296 160.691 90.8965 166.233 90.8965 171.328V198.315H94.8099V178.719C94.8099 177.263 95.8162 176.144 97.0461 176.144C99.0587 176.144 109.96 181.966 119.185 183.59C133.105 185.998 145.796 179.559 148.535 178.607C153.232 176.927 157.033 182.75 162.959 176.2H163.183C164.413 176.2 165.419 177.375 165.419 178.775V198.371H169.333V171.496C169.221 164.89 161.617 148.317 148.591 154.644Z" stroke="black" stroke-width="4" stroke-miterlimit="10" stroke-linecap="round" stroke-linejoin="round"/>
<path d="M124.72 172.84C124.72 172.84 94.4189 174.8 87.9897 158.675" stroke="black" stroke-width="4" stroke-miterlimit="10" stroke-linecap="round" stroke-linejoin="round"/>
<path d="M129.024 168.977C129.024 168.977 99.8415 167.129 92.2383 151.004" stroke="black" stroke-width="4" stroke-miterlimit="10" stroke-linecap="round" stroke-linejoin="round"/>
<path d="M165.308 193.948V212.313C169.221 212.313 172.352 208.225 172.352 203.13C172.352 198.035 169.221 193.948 165.308 193.948Z" fill="#FFC897"/>
<path d="M165.308 194.956V211.249C167.6 209.737 169.165 206.658 169.165 203.074C169.165 199.547 167.6 196.468 165.308 194.956Z" fill="#E5A973"/>
<path d="M165.308 193.948V212.313C169.221 212.313 172.352 208.225 172.352 203.13C172.352 198.035 169.221 193.948 165.308 193.948Z" stroke="black" stroke-width="4" stroke-miterlimit="10" stroke-linecap="round" stroke-linejoin="round"/>
<path d="M94.81 193.948V212.313C90.8966 212.313 87.7659 208.225 87.7659 203.13C87.71 198.035 90.8966 193.948 94.81 193.948Z" fill="#FFC897"/>
<path d="M94.8102 195.292C92.7975 196.915 91.3999 199.827 91.3999 203.13C91.3999 206.434 92.7416 209.345 94.8102 210.969V195.292Z" fill="#E5A973"/>
<path d="M94.81 193.948V212.313C90.8966 212.313 87.7659 208.225 87.7659 203.13C87.71 198.035 90.8966 193.948 94.81 193.948Z" stroke="black" stroke-width="4" stroke-miterlimit="10" stroke-linecap="round" stroke-linejoin="round"/>
<path d="M128.577 208.897L126.229 216.568C126.229 217.408 128.968 216.736 131.764 217.408" stroke="black" stroke-width="4" stroke-miterlimit="10" stroke-linecap="round" stroke-linejoin="round"/>
<path d="M141.771 223.23C142.61 229.053 135.118 234.204 129.248 233.141" stroke="black" stroke-width="3" stroke-miterlimit="10" stroke-linecap="round" stroke-linejoin="round"/>
<path d="M117.34 202.402C118.637 202.402 119.688 201.274 119.688 199.883C119.688 198.491 118.637 197.363 117.34 197.363C116.043 197.363 114.992 198.491 114.992 199.883C114.992 201.274 116.043 202.402 117.34 202.402Z" stroke="black" stroke-width="2" stroke-miterlimit="10" stroke-linecap="round" stroke-linejoin="round"/>
<path d="M117.34 202.402C118.637 202.402 119.688 201.274 119.688 199.883C119.688 198.491 118.637 197.363 117.34 197.363C116.043 197.363 114.992 198.491 114.992 199.883C114.992 201.274 116.043 202.402 117.34 202.402Z" fill="black"/>
<path d="M109.234 194.564C110.408 193.164 113.147 192.212 116.39 192.212C118.962 192.212 121.198 192.828 122.595 193.78" stroke="black" stroke-width="3" stroke-miterlimit="10" stroke-linecap="round" stroke-linejoin="round"/>
<path d="M143.057 202.402C144.354 202.402 145.405 201.274 145.405 199.883C145.405 198.491 144.354 197.363 143.057 197.363C141.76 197.363 140.709 198.491 140.709 199.883C140.709 201.274 141.76 202.402 143.057 202.402Z" stroke="black" stroke-width="2" stroke-miterlimit="10" stroke-linecap="round" stroke-linejoin="round"/>
<path d="M143.057 202.402C144.354 202.402 145.405 201.274 145.405 199.883C145.405 198.491 144.354 197.363 143.057 197.363C141.76 197.363 140.709 198.491 140.709 199.883C140.709 201.274 141.76 202.402 143.057 202.402Z" fill="black"/>
<path d="M151.163 194.564C149.989 193.164 147.25 192.212 144.007 192.212C141.436 192.212 139.199 192.828 137.802 193.78" stroke="black" stroke-width="3" stroke-miterlimit="10" stroke-linecap="round" stroke-linejoin="round"/>
<path d="M2.89785 56.8782C0.965949 56.8782 0 55.8874 0 53.9057V27.6935C0 25.7419 0.981041 24.7661 2.94313 24.7661H13.8553C17.3569 24.7661 20.0585 25.6368 21.9602 27.3783C23.862 29.1197 24.8128 31.5518 24.8128 34.6744C24.8128 37.7971 23.862 40.2442 21.9602 42.0156C20.0585 43.7571 17.3569 44.6279 13.8553 44.6279H5.79569V53.9057C5.79569 55.8874 4.82974 56.8782 2.89785 56.8782ZM5.79569 40.079H12.9498C17.1154 40.079 19.1982 38.2775 19.1982 34.6744C19.1982 31.1014 17.1154 29.3149 12.9498 29.3149H5.79569V40.079Z" fill="white"/>
<path d="M32.6163 56.5179C30.5637 56.5179 29.5374 55.4971 29.5374 53.4553V27.8286C29.5374 25.7869 30.5637 24.7661 32.6163 24.7661H48.7809C50.3506 24.7661 51.1354 25.5167 51.1354 27.018C51.1354 28.5793 50.3506 29.3599 48.7809 29.3599H35.1067V38.0973H47.7848C49.3544 38.0973 50.1393 38.863 50.1393 40.3943C50.1393 41.9256 49.3544 42.6912 47.7848 42.6912H35.1067V51.924H48.7809C50.3506 51.924 51.1354 52.6897 51.1354 54.221C51.1354 55.7523 50.3506 56.5179 48.7809 56.5179H32.6163Z" fill="white"/>
<path d="M56.2965 56.8782C55.24 56.8782 54.4853 56.5179 54.0325 55.7973C53.5797 55.0767 53.5948 54.206 54.0778 53.1851L66.0314 26.8378C66.4238 25.9671 66.8917 25.3516 67.4351 24.9912C68.0086 24.6009 68.6576 24.4057 69.3821 24.4057C70.0763 24.4057 70.6952 24.6009 71.2385 24.9912C71.812 25.3516 72.295 25.9671 72.6874 26.8378L84.6863 53.1851C85.1693 54.236 85.1995 55.1217 84.7769 55.8423C84.3543 56.5329 83.6298 56.8782 82.6035 56.8782C81.7583 56.8782 81.0942 56.6831 80.6112 56.2927C80.1584 55.8724 79.7509 55.2418 79.3887 54.4011L77.1247 49.1767H61.5488L59.3302 54.4011C58.9377 55.2719 58.5302 55.9024 58.1076 56.2927C57.685 56.6831 57.0813 56.8782 56.2965 56.8782ZM69.2915 31.0264L63.5411 44.5828H75.1325L69.3821 31.0264H69.2915Z" fill="white"/>
<path d="M92.5712 56.8782C90.6393 56.8782 89.6734 55.8874 89.6734 53.9057V27.3332C89.6734 25.3816 90.6393 24.4057 92.5712 24.4057C94.5031 24.4057 95.4691 25.3816 95.4691 27.3332V38.8179H95.5596L108.555 25.847C109.038 25.3666 109.521 25.0063 110.004 24.7661C110.487 24.5259 111.03 24.4057 111.634 24.4057C112.509 24.4057 113.128 24.6309 113.49 25.0813C113.882 25.5317 114.033 26.0571 113.943 26.6577C113.882 27.2582 113.596 27.8136 113.083 28.3241L101.174 40.034L113.716 52.6897C114.35 53.2902 114.682 53.9207 114.713 54.5813C114.743 55.2418 114.531 55.7973 114.079 56.2477C113.656 56.6681 113.022 56.8782 112.177 56.8782C111.452 56.8782 110.864 56.7281 110.411 56.4278C109.988 56.1276 109.49 55.6922 108.917 55.1217L95.5596 41.8355H95.4691V53.9057C95.4691 55.8874 94.5031 56.8782 92.5712 56.8782Z" fill="white"/>
<path d="M129.727 56.9683C127.705 56.9683 125.727 56.7431 123.796 56.2927C121.894 55.8424 120.234 55.1668 118.815 54.266C118.121 53.8156 117.698 53.2602 117.547 52.5996C117.396 51.939 117.441 51.3235 117.683 50.753C117.955 50.1525 118.362 49.7472 118.905 49.537C119.479 49.2968 120.128 49.4019 120.852 49.8523C122.181 50.6329 123.584 51.2034 125.063 51.5637C126.542 51.924 128.097 52.1042 129.727 52.1042C132.112 52.1042 133.847 51.7139 134.934 50.9332C136.021 50.1225 136.564 49.0866 136.564 47.8256C136.564 46.7747 136.172 45.949 135.387 45.3485C134.632 44.748 133.319 44.2525 131.448 43.8622L126.467 42.8263C120.792 41.6253 117.955 38.7279 117.955 34.134C117.955 32.1523 118.483 30.4258 119.539 28.9546C120.596 27.4834 122.06 26.3424 123.931 25.5317C125.803 24.721 127.961 24.3157 130.406 24.3157C132.217 24.3157 133.938 24.5409 135.568 24.9912C137.198 25.4416 138.662 26.1022 139.96 26.9729C140.564 27.3933 140.926 27.9187 141.047 28.5493C141.168 29.1498 141.092 29.7202 140.82 30.2607C140.549 30.7711 140.111 31.1314 139.507 31.3416C138.934 31.5218 138.255 31.3867 137.47 30.9363C136.353 30.3057 135.221 29.8554 134.074 29.5851C132.927 29.3149 131.689 29.1798 130.361 29.1798C128.278 29.1798 126.648 29.6152 125.471 30.4859C124.294 31.3566 123.705 32.4976 123.705 33.9088C123.705 34.9897 124.067 35.8604 124.792 36.521C125.516 37.1515 126.754 37.647 128.505 38.0073L133.44 39.0431C136.428 39.6737 138.647 40.6645 140.096 42.0156C141.575 43.3668 142.315 45.1683 142.315 47.4202C142.315 49.3118 141.801 50.9782 140.775 52.4195C139.749 53.8607 138.285 54.9866 136.383 55.7973C134.512 56.578 132.293 56.9683 129.727 56.9683Z" fill="white"/>
<path d="M161.597 56.9683C158.518 56.9683 155.816 56.2927 153.492 54.9416C151.198 53.5904 149.417 51.6988 148.149 49.2668C146.881 46.8047 146.248 43.9223 146.248 40.6195C146.248 37.2866 146.881 34.4042 148.149 31.9722C149.417 29.5401 151.198 27.6635 153.492 26.3424C155.786 24.9912 158.488 24.3157 161.597 24.3157C164.706 24.3157 167.408 24.9912 169.702 26.3424C171.996 27.6635 173.777 29.5401 175.045 31.9722C176.313 34.4042 176.947 37.2716 176.947 40.5744C176.947 43.9073 176.313 46.8047 175.045 49.2668C173.777 51.6988 171.996 53.5904 169.702 54.9416C167.408 56.2927 164.706 56.9683 161.597 56.9683ZM161.597 52.0141C164.525 52.0141 166.804 51.0083 168.434 48.9966C170.064 46.9849 170.879 44.1925 170.879 40.6195C170.879 37.0164 170.064 34.2241 168.434 32.2424C166.834 30.2607 164.555 29.2699 161.597 29.2699C158.669 29.2699 156.39 30.2607 154.76 32.2424C153.13 34.2241 152.315 37.0164 152.315 40.6195C152.315 44.1925 153.13 46.9849 154.76 48.9966C156.39 51.0083 158.669 52.0141 161.597 52.0141Z" fill="white"/>
<path d="M185.828 56.8782C183.836 56.8782 182.84 55.8574 182.84 53.8156V27.8286C182.84 25.7869 183.866 24.7661 185.919 24.7661H201.721C203.291 24.7661 204.076 25.5167 204.076 27.018C204.076 28.5793 203.291 29.3599 201.721 29.3599H188.636V38.3225H200.77C202.34 38.3225 203.125 39.0732 203.125 40.5744C203.125 42.1358 202.34 42.9164 200.77 42.9164H188.636V53.8156C188.636 55.8574 187.7 56.8782 185.828 56.8782Z" fill="white"/>
<path d="M219.214 56.8782C217.282 56.8782 216.316 55.8874 216.316 53.9057V29.5851H207.487C205.827 29.5851 204.996 28.7744 204.996 27.1531C204.996 25.5617 205.827 24.7661 207.487 24.7661H230.941C232.601 24.7661 233.432 25.5617 233.432 27.1531C233.432 28.7744 232.601 29.5851 230.941 29.5851H222.112V53.9057C222.112 55.8874 221.146 56.8782 219.214 56.8782Z" fill="white"/>
<path d="M264 9.37895C264 4.1991 259.801 0 254.621 0C249.441 0 245.242 4.1991 245.242 9.37895C245.242 14.5588 249.441 18.7579 254.621 18.7579C259.801 18.7579 264 14.5588 264 9.37895Z" fill="url(#paint0_linear_3_2266)"/>
<defs>
<linearGradient id="paint0_linear_3_2266" x1="264" y1="0" x2="245.242" y2="18.7579" gradientUnits="userSpaceOnUse">
<stop stop-color="#FA2B56"/>
<stop offset="1" stop-color="#F91C3D"/>
</linearGradient>
</defs>
</svg>
