<svg width="234" height="33" viewBox="0 0 234 33" fill="none" xmlns="http://www.w3.org/2000/svg">
<path d="M2.89785 32.8782C0.965949 32.8782 0 31.8874 0 29.9057V3.69353C0 1.74188 0.981041 0.766054 2.94313 0.766054H13.8553C17.3569 0.766054 20.0585 1.63679 21.9602 3.37827C23.862 5.11974 24.8128 7.5518 24.8128 10.6744C24.8128 13.7971 23.862 16.2442 21.9602 18.0156C20.0585 19.7571 17.3569 20.6279 13.8553 20.6279H5.79569V29.9057C5.79569 31.8874 4.82974 32.8782 2.89785 32.8782ZM5.79569 16.079H12.9498C17.1154 16.079 19.1982 14.2775 19.1982 10.6744C19.1982 7.10142 17.1154 5.3149 12.9498 5.3149H5.79569V16.079Z" fill="white"/>
<path d="M32.6163 32.5179C30.5637 32.5179 29.5374 31.4971 29.5374 29.4553V3.82865C29.5374 1.78692 30.5637 0.766054 32.6163 0.766054H48.7809C50.3506 0.766054 51.1354 1.51669 51.1354 3.01796C51.1354 4.57928 50.3506 5.35994 48.7809 5.35994H35.1067V14.0973H47.7848C49.3544 14.0973 50.1393 14.863 50.1393 16.3943C50.1393 17.9256 49.3544 18.6912 47.7848 18.6912H35.1067V27.924H48.7809C50.3506 27.924 51.1354 28.6897 51.1354 30.221C51.1354 31.7523 50.3506 32.5179 48.7809 32.5179H32.6163Z" fill="white"/>
<path d="M56.2965 32.8782C55.24 32.8782 54.4853 32.5179 54.0325 31.7973C53.5797 31.0767 53.5948 30.206 54.0778 29.1851L66.0314 2.83781C66.4238 1.96707 66.8917 1.35155 67.4351 0.991245C68.0086 0.600914 68.6576 0.405749 69.3821 0.405749C70.0763 0.405749 70.6952 0.600914 71.2385 0.991245C71.812 1.35155 72.295 1.96707 72.6874 2.83781L84.6863 29.1851C85.1693 30.236 85.1995 31.1217 84.7769 31.8423C84.3543 32.5329 83.6298 32.8782 82.6035 32.8782C81.7583 32.8782 81.0942 32.6831 80.6112 32.2927C80.1584 31.8724 79.7509 31.2418 79.3887 30.4011L77.1247 25.1767H61.5488L59.3302 30.4011C58.9377 31.2719 58.5302 31.9024 58.1076 32.2927C57.685 32.6831 57.0813 32.8782 56.2965 32.8782ZM69.2915 7.02635L63.5411 20.5828H75.1325L69.3821 7.02635H69.2915Z" fill="white"/>
<path d="M92.5712 32.8782C90.6393 32.8782 89.6734 31.8874 89.6734 29.9057V3.33323C89.6734 1.38158 90.6393 0.405749 92.5712 0.405749C94.5031 0.405749 95.4691 1.38158 95.4691 3.33323V14.8179H95.5596L108.555 1.84697C109.038 1.36656 109.521 1.00626 110.004 0.766054C110.487 0.525851 111.03 0.405749 111.634 0.405749C112.509 0.405749 113.128 0.63094 113.49 1.08132C113.882 1.5317 114.033 2.05715 113.943 2.65766C113.882 3.25816 113.596 3.81363 113.083 4.32406L101.174 16.034L113.716 28.6897C114.35 29.2902 114.682 29.9207 114.713 30.5813C114.743 31.2418 114.531 31.7973 114.079 32.2477C113.656 32.6681 113.022 32.8782 112.177 32.8782C111.452 32.8782 110.864 32.7281 110.411 32.4278C109.988 32.1276 109.49 31.6922 108.917 31.1217L95.5596 17.8355H95.4691V29.9057C95.4691 31.8874 94.5031 32.8782 92.5712 32.8782Z" fill="white"/>
<path d="M129.727 32.9683C127.705 32.9683 125.727 32.7431 123.796 32.2927C121.894 31.8424 120.234 31.1668 118.815 30.266C118.121 29.8156 117.698 29.2602 117.547 28.5996C117.396 27.939 117.441 27.3235 117.683 26.753C117.955 26.1525 118.362 25.7472 118.905 25.537C119.479 25.2968 120.128 25.4019 120.852 25.8523C122.181 26.6329 123.584 27.2034 125.063 27.5637C126.542 27.924 128.097 28.1042 129.727 28.1042C132.112 28.1042 133.847 27.7139 134.934 26.9332C136.021 26.1225 136.564 25.0866 136.564 23.8256C136.564 22.7747 136.172 21.949 135.387 21.3485C134.632 20.748 133.319 20.2525 131.448 19.8622L126.467 18.8263C120.792 17.6253 117.955 14.7279 117.955 10.134C117.955 8.1523 118.483 6.42584 119.539 4.9546C120.596 3.48335 122.06 2.34239 123.931 1.5317C125.803 0.721017 127.961 0.315674 130.406 0.315674C132.217 0.315674 133.938 0.540864 135.568 0.991245C137.198 1.44163 138.662 2.10218 139.96 2.97292C140.564 3.39328 140.926 3.91872 141.047 4.54926C141.168 5.14976 141.092 5.72025 140.82 6.2607C140.549 6.77113 140.111 7.13144 139.507 7.34162C138.934 7.52177 138.255 7.38666 137.47 6.93628C136.353 6.30574 135.221 5.85536 134.074 5.58513C132.927 5.3149 131.689 5.17979 130.361 5.17979C128.278 5.17979 126.648 5.61516 125.471 6.4859C124.294 7.35663 123.705 8.4976 123.705 9.90879C123.705 10.9897 124.067 11.8604 124.792 12.521C125.516 13.1515 126.754 13.647 128.505 14.0073L133.44 15.0431C136.428 15.6737 138.647 16.6645 140.096 18.0156C141.575 19.3668 142.315 21.1683 142.315 23.4202C142.315 25.3118 141.801 26.9782 140.775 28.4195C139.749 29.8607 138.285 30.9866 136.383 31.7973C134.512 32.578 132.293 32.9683 129.727 32.9683Z" fill="white"/>
<path d="M161.597 32.9683C158.518 32.9683 155.816 32.2927 153.492 30.9416C151.198 29.5904 149.417 27.6988 148.149 25.2668C146.881 22.8047 146.248 19.9223 146.248 16.6195C146.248 13.2866 146.881 10.4042 148.149 7.97215C149.417 5.54009 151.198 3.66351 153.492 2.34239C155.786 0.991246 158.488 0.315674 161.597 0.315674C164.706 0.315674 167.408 0.991246 169.702 2.34239C171.996 3.66351 173.777 5.54009 175.045 7.97215C176.313 10.4042 176.947 13.2716 176.947 16.5744C176.947 19.9073 176.313 22.8047 175.045 25.2668C173.777 27.6988 171.996 29.5904 169.702 30.9416C167.408 32.2927 164.706 32.9683 161.597 32.9683ZM161.597 28.0141C164.525 28.0141 166.804 27.0083 168.434 24.9966C170.064 22.9849 170.879 20.1925 170.879 16.6195C170.879 13.0164 170.064 10.2241 168.434 8.24238C166.834 6.2607 164.555 5.26987 161.597 5.26987C158.669 5.26987 156.39 6.2607 154.76 8.24238C153.13 10.2241 152.315 13.0164 152.315 16.6195C152.315 20.1925 153.13 22.9849 154.76 24.9966C156.39 27.0083 158.669 28.0141 161.597 28.0141Z" fill="white"/>
<path d="M185.828 32.8782C183.836 32.8782 182.84 31.8574 182.84 29.8156V3.82865C182.84 1.78692 183.866 0.766054 185.919 0.766054H201.721C203.291 0.766054 204.076 1.51669 204.076 3.01796C204.076 4.57928 203.291 5.35994 201.721 5.35994H188.636V14.3225H200.77C202.34 14.3225 203.125 15.0732 203.125 16.5744C203.125 18.1358 202.34 18.9164 200.77 18.9164H188.636V29.8156C188.636 31.8574 187.7 32.8782 185.828 32.8782Z" fill="white"/>
<path d="M219.214 32.8782C217.282 32.8782 216.316 31.8874 216.316 29.9057V5.58513H207.487C205.827 5.58513 204.996 4.77445 204.996 3.15307C204.996 1.56173 205.827 0.766054 207.487 0.766054H230.941C232.601 0.766054 233.432 1.56173 233.432 3.15307C233.432 4.77445 232.601 5.58513 230.941 5.58513H222.112V29.9057C222.112 31.8874 221.146 32.8782 219.214 32.8782Z" fill="white"/>
</svg>
