<svg width="20" height="20" viewBox="0 0 20 20" fill="none" xmlns="http://www.w3.org/2000/svg">
<g id="&#208;&#145;&#208;&#181;&#208;&#183; &#208;&#183;&#208;&#176;&#208;&#187;&#208;&#184;&#208;&#178;&#208;&#186;&#208;&#184;" clip-path="url(#clip0_10600_1330)">
<path id="Vector" d="M9.16675 9.16675V5.00008C9.16675 4.53984 9.53984 4.16675 10.0001 4.16675C10.4603 4.16675 10.8334 4.53984 10.8334 5.00008V9.16675H15.0001C15.4603 9.16675 15.8334 9.53984 15.8334 10.0001C15.8334 10.4603 15.4603 10.8334 15.0001 10.8334H10.8334V15.0001C10.8334 15.4603 10.4603 15.8334 10.0001 15.8334C9.53984 15.8334 9.16675 15.4603 9.16675 15.0001V10.8334H5.00008C4.53984 10.8334 4.16675 10.4603 4.16675 10.0001C4.16675 9.53984 4.53984 9.16675 5.00008 9.16675H9.16675Z" fill="white"/>
</g>
<defs>
<clipPath id="clip0_10600_1330">
<rect width="20" height="20" fill="white"/>
</clipPath>
</defs>
</svg>
