<svg width="24" height="24" viewBox="0 0 24 24" fill="none" xmlns="http://www.w3.org/2000/svg">
<g id="Property 1=&#208;&#159;&#209;&#128;&#208;&#181;&#208;&#183;&#208;&#181;&#208;&#189;&#209;&#130;&#208;&#176;&#209;&#134;&#208;&#184;&#209;&#143;" clip-path="url(#clip0_3_3589)">
<path id="Vector" d="M13 18V20H16C16.5523 20 17 20.4477 17 21V21C17 21.5523 16.5523 22 16 22H8C7.44772 22 7 21.5523 7 21V21C7 20.4477 7.44772 20 8 20H11V18H3C2.73478 18 2.48043 17.8946 2.29289 17.7071C2.10536 17.5196 2 17.2652 2 17V4C2 3.73478 2.10536 3.48043 2.29289 3.29289C2.48043 3.10536 2.73478 3 3 3H21C21.2652 3 21.5196 3.10536 21.7071 3.29289C21.8946 3.48043 22 3.73478 22 4V17C22 17.2652 21.8946 17.5196 21.7071 17.7071C21.5196 17.8946 21.2652 18 21 18H13ZM4 5V16H20V5H4ZM10 7.5L15 10.5L10 13.5V7.5Z" fill="black"/>
</g>
<defs>
<clipPath id="clip0_3_3589">
<rect width="24" height="24" fill="white"/>
</clipPath>
</defs>
</svg>
