<svg width="30" height="30" viewBox="0 0 30 30" fill="none" xmlns="http://www.w3.org/2000/svg">
<circle cx="15" cy="15" r="15" fill="#D9D9D9"/>
<g clip-path="url(#clip0_3_890)">
<path d="M10.03 22.6651C9.47774 22.6651 9.02161 22.2143 9.11233 21.6696C9.31851 20.4315 9.9059 19.2791 10.805 18.38C11.9414 17.2435 13.4828 16.6051 15.09 16.6051C16.6972 16.6051 18.2386 17.2435 19.3751 18.38C20.2742 19.2791 20.8616 20.4315 21.0677 21.6696C21.1585 22.2143 20.7023 22.6651 20.15 22.6651H10.03ZM15.09 15.8476C12.5789 15.8476 10.545 13.8137 10.545 11.3026C10.545 8.79146 12.5789 6.75757 15.09 6.75757C17.6011 6.75757 19.635 8.79146 19.635 11.3026C19.635 13.8137 17.6011 15.8476 15.09 15.8476Z" fill="#ABABAB"/>
</g>
<defs>
<clipPath id="clip0_3_890">
<rect width="18.18" height="18.18" fill="white" transform="translate(6 6)"/>
</clipPath>
</defs>
</svg>
