<svg width="24" height="24" viewBox="0 0 24 24" fill="none" xmlns="http://www.w3.org/2000/svg">
<g id="Property 1=&#208;&#151;&#208;&#176;&#209;&#135;&#208;&#181;&#209;&#128;&#208;&#186;&#208;&#189;&#209;&#131;&#209;&#130;&#209;&#139;&#208;&#185; &#209;&#130;&#208;&#181;&#208;&#186;&#209;&#129;&#209;&#130;" clip-path="url(#clip0_3_3619)">
<path id="Vector" d="M7 3C7.55228 3 8 3.44772 8 4V12C8 13.0609 8.42143 14.0783 9.17157 14.8284C9.92172 15.5786 10.9391 16 12 16C13.0609 16 14.0783 15.5786 14.8284 14.8284C15.5786 14.0783 16 13.0609 16 12V4C16 3.44772 16.4477 3 17 3V3C17.5523 3 18 3.44772 18 4V12C18 13.5913 17.3679 15.1174 16.2426 16.2426C15.1174 17.3679 13.5913 18 12 18C10.4087 18 8.88258 17.3679 7.75736 16.2426C6.63214 15.1174 6 13.5913 6 12V4C6 3.44772 6.44772 3 7 3V3ZM4 21C4 20.4477 4.44772 20 5 20H19C19.5523 20 20 20.4477 20 21V21C20 21.5523 19.5523 22 19 22H5C4.44772 22 4 21.5523 4 21V21Z" fill="black"/>
</g>
<defs>
<clipPath id="clip0_3_3619">
<rect width="24" height="24" fill="white"/>
</clipPath>
</defs>
</svg>
