<svg width="24" height="24" viewBox="0 0 24 24" fill="none" xmlns="http://www.w3.org/2000/svg">
<g id="Property 1=&#209;&#129;&#209;&#130;&#209;&#131;&#208;&#180;&#208;&#181;&#208;&#189;&#209;&#130;&#209;&#139;" clip-path="url(#clip0_3_3653)">
<path id="Vector" d="M3 22C2.44772 22 1.99355 21.5505 2.06239 21.0026C2.28276 19.2486 3.0799 17.6064 4.34315 16.3431C5.84344 14.8429 7.87827 14 10 14C12.1217 14 14.1566 14.8429 15.6569 16.3431C16.9201 17.6064 17.7172 19.2486 17.9376 21.0026C18.0065 21.5505 17.5523 22 17 22H3ZM10 13C6.685 13 4 10.315 4 7C4 3.685 6.685 1 10 1C13.315 1 16 3.685 16 7C16 10.315 13.315 13 10 13ZM19.1907 18.0527C18.7973 17.138 19.5772 16.126 20.3379 16.7685C20.6733 17.0519 20.9849 17.3656 21.2683 17.7068C22.0486 18.6463 22.5842 19.7576 22.8359 20.9418C22.9562 21.5078 22.4923 22 21.9138 22H21C20.4477 22 20.0053 21.5511 19.9508 21.0015C19.8479 19.9637 19.5863 18.9726 19.1907 18.0527ZM17.4464 12.7874C16.6454 13.0293 16.2655 12.0463 16.7201 11.3438C16.9425 10.9999 17.1387 10.6386 17.3066 10.2627C17.765 9.23616 18.0013 8.12429 18 7C18.001 6.36238 17.9254 5.72965 17.7767 5.11494C17.5758 4.28451 18.2698 3.46274 18.9586 3.96829C19.2946 4.21492 19.6007 4.50426 19.8685 4.8312C20.6004 5.72502 21.0002 6.84473 21 8C21.0003 8.71247 20.8482 9.41676 20.5541 10.0657C20.26 10.7146 19.8305 11.2931 19.2946 11.7625C18.7586 12.2319 18.1285 12.5814 17.4464 12.7874V12.7874Z" fill="#1F6ED4"/>
</g>
<defs>
<clipPath id="clip0_3_3653">
<rect width="24" height="24" fill="white"/>
</clipPath>
</defs>
</svg>
