<svg width="24" height="24" viewBox="0 0 24 24" fill="none" xmlns="http://www.w3.org/2000/svg">
<g id="Property 1=&#208;&#161;&#209;&#130;&#209;&#131;&#208;&#180;&#208;&#181;&#208;&#189;&#209;&#130;&#209;&#139;" clip-path="url(#clip0_3_3544)">
<path id="Vector" d="M3 22C2.44772 22 1.99355 21.5505 2.06239 21.0026C2.28276 19.2486 3.0799 17.6064 4.34315 16.3431C5.84344 14.8429 7.87827 14 10 14C12.1217 14 14.1566 14.8429 15.6569 16.3431C16.9201 17.6064 17.7172 19.2486 17.9376 21.0026C18.0065 21.5505 17.5523 22 17 22V22C16.4477 22 16.0085 21.5492 15.9169 21.0046C15.7113 19.7825 15.1304 18.6452 14.2426 17.7574C13.1174 16.6321 11.5913 16 10 16C8.4087 16 6.88258 16.6321 5.75736 17.7574C4.86956 18.6452 4.28871 19.7825 4.08312 21.0046C3.9915 21.5492 3.55228 22 3 22V22ZM10 13C6.685 13 4 10.315 4 7C4 3.685 6.685 1 10 1C13.315 1 16 3.685 16 7C16 10.315 13.315 13 10 13ZM10 11C12.21 11 14 9.21 14 7C14 4.79 12.21 3 10 3C7.79 3 6 4.79 6 7C6 9.21 7.79 11 10 11ZM17.8734 15.6152C18.1001 15.1115 18.6966 14.8817 19.168 15.1696C20.1905 15.7939 21.0637 16.6424 21.7186 17.6557C22.3736 18.6692 22.7885 19.8139 22.9377 21.0027C23.0065 21.5506 22.5524 22 22.0002 22V22C21.4478 22 21.0086 21.5491 20.917 21.0044C20.7822 20.2017 20.4847 19.4311 20.0391 18.7416C19.5934 18.052 19.013 17.4642 18.3364 17.0114C17.8774 16.7043 17.6468 16.1187 17.8734 15.6152V15.6152ZM17.2885 4.48956C17.4524 3.91566 18.0863 3.60742 18.5807 3.94174C19.1667 4.33796 19.6737 4.84553 20.071 5.43923C20.6771 6.34492 21.0004 7.41024 21 8.5C21.0004 9.87233 20.4877 11.1952 19.5625 12.2088C18.8854 12.9507 18.0232 13.4876 17.0737 13.771C16.5102 13.9392 16 13.4709 16 12.8827V12.832C16 12.3345 16.3742 11.9267 16.8343 11.7376C17.2523 11.5658 17.6356 11.3136 17.9613 10.9925C18.4943 10.4669 18.8447 9.78432 18.9612 9.04493C19.0776 8.30555 18.954 7.5483 18.6084 6.88435C18.3926 6.46981 18.0974 6.10528 17.7424 5.80989C17.3699 5.49996 17.1379 5.01669 17.271 4.55077L17.2885 4.48956Z" fill="black"/>
</g>
<defs>
<clipPath id="clip0_3_3544">
<rect width="24" height="24" fill="white"/>
</clipPath>
</defs>
</svg>
