<svg width="24" height="24" viewBox="0 0 24 24" fill="none" xmlns="http://www.w3.org/2000/svg">
<g id="Property 1=&#208;&#161;&#209;&#130;&#209;&#131;&#208;&#180;&#208;&#181;&#208;&#189;&#209;&#130;" clip-path="url(#clip0_3_3646)">
<path id="Vector" d="M5 22C4.44772 22 3.99355 21.5505 4.06239 21.0026C4.28276 19.2486 5.0799 17.6064 6.34315 16.3431C7.84344 14.8429 9.87827 14 12 14C14.1217 14 16.1566 14.8429 17.6569 16.3431C18.9201 17.6064 19.7172 19.2486 19.9376 21.0026C20.0065 21.5505 19.5523 22 19 22V22C18.4477 22 18.0085 21.5492 17.9169 21.0046C17.7113 19.7825 17.1304 18.6452 16.2426 17.7574C15.1174 16.6321 13.5913 16 12 16C10.4087 16 8.88258 16.6321 7.75736 17.7574C6.86956 18.6452 6.28871 19.7825 6.08312 21.0046C5.9915 21.5492 5.55228 22 5 22V22ZM12 13C8.685 13 6 10.315 6 7C6 3.685 8.685 1 12 1C15.315 1 18 3.685 18 7C18 10.315 15.315 13 12 13ZM12 11C14.21 11 16 9.21 16 7C16 4.79 14.21 3 12 3C9.79 3 8 4.79 8 7C8 9.21 9.79 11 12 11Z" fill="black"/>
</g>
<defs>
<clipPath id="clip0_3_3646">
<rect width="24" height="24" fill="white"/>
</clipPath>
</defs>
</svg>
