<svg width="18" height="18" viewBox="0 0 18 18" fill="none" xmlns="http://www.w3.org/2000/svg">
<path d="M1 0H17C17.2652 0 17.5196 0.105357 17.7071 0.292893C17.8946 0.48043 18 0.734784 18 1V17C18 17.2652 17.8946 17.5196 17.7071 17.7071C17.5196 17.8946 17.2652 18 17 18H1C0.734784 18 0.48043 17.8946 0.292893 17.7071C0.105357 17.5196 0 17.2652 0 17V1C0 0.734784 0.105357 0.48043 0.292893 0.292893C0.48043 0.105357 0.734784 0 1 0ZM7.29584 12.2928C7.68639 12.6834 8.31959 12.6834 8.71011 12.2928L14.3661 6.63599C14.7565 6.24552 14.7565 5.6125 14.3661 5.22206C13.9756 4.83157 13.3425 4.8316 12.952 5.22212L8.003 10.172L5.881 8.05C5.49053 7.65954 4.85747 7.65953 4.467 8.05C4.07653 8.44046 4.07654 9.07353 4.467 9.464L7.29584 12.2928Z" fill="#36AC0C"/>
</svg>
