<svg width="24" height="24" viewBox="0 0 24 24" fill="none" xmlns="http://www.w3.org/2000/svg">
<g id="Property 1=&#208;&#163;&#209;&#135;&#208;&#184;&#209;&#130;&#208;&#181;&#208;&#187;&#209;&#143;" clip-path="url(#clip0_3_3659)">
<path id="Vector" d="M3 22C2.44772 22 1.99355 21.5505 2.06239 21.0026C2.28276 19.2486 3.0799 17.6064 4.34315 16.3431C5.84344 14.8429 7.87827 14 10 14C12.1217 14 14.1566 14.8429 15.6569 16.3431C16.9201 17.6064 17.7172 19.2486 17.9376 21.0026C18.0065 21.5505 17.5523 22 17 22H3ZM10 13C6.685 13 4 10.315 4 7C4 3.685 6.685 1 10 1C13.315 1 16 3.685 16 7C16 10.315 13.315 13 10 13ZM20 18C20 17.4477 20.4477 17 21 17H23C23.5523 17 24 17.4477 24 18V18C24 18.5523 23.5523 19 23 19H21C20.4477 19 20 18.5523 20 18V18ZM17 13C17 12.4477 17.4477 12 18 12H23C23.5523 12 24 12.4477 24 13V13C24 13.5523 23.5523 14 23 14H18C17.4477 14 17 13.5523 17 13V13ZM19 8C19 7.44772 19.4477 7 20 7H23C23.5523 7 24 7.44772 24 8V8C24 8.55228 23.5523 9 23 9H20C19.4477 9 19 8.55228 19 8V8Z" fill="#1F6ED4"/>
</g>
<defs>
<clipPath id="clip0_3_3659">
<rect width="24" height="24" fill="white"/>
</clipPath>
</defs>
</svg>
