<svg width="24" height="24" viewBox="0 0 24 24" fill="none" xmlns="http://www.w3.org/2000/svg">
<g clip-path="url(#clip0_3_3770)">
<path d="M19 8C19 7.44772 19.4477 7 20 7H23C23.5523 7 24 7.44772 24 8C24 8.55228 23.5523 9 23 9H20C19.4477 9 19 8.55228 19 8ZM17 13C17 12.4477 17.4477 12 18 12H23C23.5523 12 24 12.4477 24 13C24 13.5523 23.5523 14 23 14H18C17.4477 14 17 13.5523 17 13ZM20 18C20 17.4477 20.4477 17 21 17H23C23.5523 17 24 17.4477 24 18C24 18.5523 23.5523 19 23 19H21C20.4477 19 20 18.5523 20 18ZM3 22C2.44772 22 1.99355 21.5505 2.06239 21.0026C2.28276 19.2486 3.0799 17.6064 4.34315 16.3431C5.84344 14.8429 7.87827 14 10 14C12.1217 14 14.1566 14.8429 15.6569 16.3431C16.9201 17.6064 17.7172 19.2486 17.9376 21.0026C18.0065 21.5505 17.5523 22 17 22C16.4477 22 16.0085 21.5492 15.9169 21.0046C15.7113 19.7825 15.1304 18.6452 14.2426 17.7574C13.1174 16.6321 11.5913 16 10 16C8.4087 16 6.88258 16.6321 5.75736 17.7574C4.86956 18.6452 4.28871 19.7825 4.08312 21.0046C3.9915 21.5492 3.55228 22 3 22ZM10 13C6.685 13 4 10.315 4 7C4 3.685 6.685 1 10 1C13.315 1 16 3.685 16 7C16 10.315 13.315 13 10 13ZM10 11C12.21 11 14 9.21 14 7C14 4.79 12.21 3 10 3C7.79 3 6 4.79 6 7C6 9.21 7.79 11 10 11Z" fill="#292928"/>
</g>
<defs>
<clipPath id="clip0_3_3770">
<rect width="24" height="24" fill="white"/>
</clipPath>
</defs>
</svg>
