<svg width="24" height="24" viewBox="0 0 24 24" fill="none" xmlns="http://www.w3.org/2000/svg">
<g clip-path="url(#clip0_10043_788)">
<path d="M4 15C4.55228 15 5 15.4477 5 16V17C5 18.054 5.95 19 7 19H9C9.55228 19 10 19.4477 10 20C10 20.5523 9.55228 21 9 21H7C5.93913 21 4.92172 20.5786 4.17157 19.8284C3.42143 19.0783 3 18.0609 3 17V16C3 15.4477 3.44772 15 4 15ZM17.323 10C17.7319 10 18.0996 10.249 18.2514 10.6286L21.8514 19.6286C22.1142 20.2855 21.6296 21 20.9222 21C20.5134 21 20.1454 20.7512 19.9935 20.3717L19.044 18H14.954L14.0063 20.3712C13.8545 20.7509 13.4868 21 13.0778 21C12.3704 21 11.8867 20.2856 12.1494 19.6288L15.7486 10.6287C15.9004 10.249 16.2682 10 16.6771 10H17.323ZM17 12.885L15.753 16H18.245L17 12.885ZM3 4C3 3.44772 3.44772 3 4 3H9C9.57904 3.00021 10.1456 3.16798 10.6314 3.48307C11.1172 3.79817 11.5015 4.24711 11.7378 4.77574C11.9741 5.30437 12.0523 5.89009 11.9631 6.46221C11.8739 7.03433 11.621 7.56841 11.235 8C11.621 8.43159 11.8739 8.96567 11.9631 9.53779C12.0523 10.1099 11.9741 10.6956 11.7378 11.2243C11.5015 11.7529 11.1172 12.2018 10.6314 12.5169C10.1456 12.832 9.57904 12.9998 9 13H4C3.44772 13 3 12.5523 3 12V4ZM9 9H5V11H9C9.26522 11 9.51957 10.8946 9.70711 10.7071C9.89464 10.5196 10 10.2652 10 10C10 9.73478 9.89464 9.48043 9.70711 9.29289C9.51957 9.10536 9.26522 9 9 9ZM17 3C18.0609 3 19.0783 3.42143 19.8284 4.17157C20.5786 4.92172 21 5.93913 21 7V8C21 8.55228 20.5523 9 20 9C19.4477 9 19 8.55228 19 8V7C19 6.46957 18.7893 5.96086 18.4142 5.58579C18.0391 5.21071 17.5304 5 17 5H15C14.4477 5 14 4.55228 14 4C14 3.44772 14.4477 3 15 3H17ZM9 5H5V7H9C9.26522 7 9.51957 6.89464 9.70711 6.70711C9.89464 6.51957 10 6.26522 10 6C10 5.73478 9.89464 5.48043 9.70711 5.29289C9.51957 5.10536 9.26522 5 9 5Z" fill="black"/>
</g>
<defs>
<clipPath id="clip0_10043_788">
<rect width="24" height="24" fill="white"/>
</clipPath>
</defs>
</svg>
