<svg width="22" height="22" viewBox="0 0 22 22" fill="none" xmlns="http://www.w3.org/2000/svg">
<path d="M3.92847 6.28574H18.0713M7.85704 6.28574V4.71431C7.85704 4.29754 8.0226 3.89784 8.3173 3.60314C8.612 3.30844 9.0117 3.14288 9.42847 3.14288H12.5713C12.9881 3.14288 13.3878 3.30844 13.6825 3.60314C13.9772 3.89784 14.1428 4.29754 14.1428 4.71431V6.28574M16.4999 6.28574V17.2857C16.4999 17.7025 16.3343 18.1022 16.0396 18.3969C15.7449 18.6916 15.3452 18.8572 14.9285 18.8572H7.07132C6.65456 18.8572 6.25486 18.6916 5.96016 18.3969C5.66546 18.1022 5.4999 17.7025 5.4999 17.2857V6.28574H16.4999Z" stroke="#868686" stroke-linecap="round" stroke-linejoin="round"/>
</svg>
