<svg width="22" height="22" viewBox="0 0 22 22" fill="none" xmlns="http://www.w3.org/2000/svg">
<path d="M3.92847 6.28568H18.0713M7.85704 6.28568V4.71425C7.85704 4.29748 8.0226 3.89778 8.3173 3.60308C8.612 3.30838 9.0117 3.14282 9.42847 3.14282H12.5713C12.9881 3.14282 13.3878 3.30838 13.6825 3.60308C13.9772 3.89778 14.1428 4.29748 14.1428 4.71425V6.28568M16.4999 6.28568V17.2857C16.4999 17.7024 16.3343 18.1021 16.0396 18.3968C15.7449 18.6915 15.3452 18.8571 14.9285 18.8571H7.07132C6.65456 18.8571 6.25486 18.6915 5.96016 18.3968C5.66546 18.1021 5.4999 17.7024 5.4999 17.2857V6.28568H16.4999Z" stroke="#868686" stroke-linecap="round" stroke-linejoin="round"/>
</svg>
