<svg width="21" height="21" viewBox="0 0 21 21" fill="none" xmlns="http://www.w3.org/2000/svg">
<path d="M1 21C0.447715 21 -0.00645391 20.5505 0.0623925 20.0026C0.282756 18.2486 1.0799 16.6064 2.34315 15.3431C3.84344 13.8429 5.87827 13 8 13C10.1217 13 12.1566 13.8429 13.6569 15.3431C14.9201 16.6064 15.7172 18.2486 15.9376 20.0026C16.0065 20.5505 15.5523 21 15 21H1ZM8 12C4.685 12 2 9.315 2 6C2 2.685 4.685 0 8 0C11.315 0 14 2.685 14 6C14 9.315 11.315 12 8 12ZM17.1907 17.0527C16.7973 16.138 17.5772 15.126 18.3379 15.7685C18.6733 16.0519 18.9849 16.3656 19.2683 16.7068C20.0486 17.6463 20.5842 18.7576 20.8359 19.9418C20.9562 20.5078 20.4923 21 19.9138 21H19C18.4477 21 18.0053 20.5511 17.9508 20.0015C17.8479 18.9637 17.5863 17.9726 17.1907 17.0527ZM15.4464 11.7874C14.6454 12.0293 14.2655 11.0463 14.7201 10.3438C14.9425 9.99993 15.1387 9.6386 15.3066 9.26275C15.765 8.23616 16.0013 7.12429 16 6C16.001 5.36238 15.9254 4.72965 15.7767 4.11494C15.5758 3.28451 16.2698 2.46274 16.9586 2.96829C17.2946 3.21492 17.6007 3.50426 17.8685 3.8312C18.6004 4.72502 19.0002 5.84473 19 7C19.0003 7.71247 18.8482 8.41676 18.5541 9.06567C18.26 9.71459 17.8305 10.2931 17.2946 10.7625C16.7586 11.2319 16.1285 11.5814 15.4464 11.7874Z" fill="#1F6ED4"/>
</svg>
