<svg width="20" height="19" viewBox="0 0 20 19" fill="none" xmlns="http://www.w3.org/2000/svg">
<path d="M11 15V17H14C14.5523 17 15 17.4477 15 18C15 18.5523 14.5523 19 14 19H6.00001C5.44773 19 5.00001 18.5523 5.00001 18C5.00001 17.4477 5.44773 17 6.00001 17H9.00001V15H0.99201C0.860696 14.9992 0.730827 14.9725 0.609848 14.9215C0.488869 14.8704 0.379157 14.7959 0.287002 14.7024C0.194846 14.6088 0.122059 14.498 0.0728109 14.3763C0.0235632 14.2546 -0.00117633 14.1243 1.02284e-05 13.993V1.007C1.02284e-05 0.451 0.45501 0 0.99201 0H19.008C19.556 0 20 0.449 20 1.007V13.993C20 14.549 19.545 15 19.008 15H11Z" fill="#1F6ED4"/>
</svg>
