<svg width="22" height="21" viewBox="0 0 22 21" fill="none" xmlns="http://www.w3.org/2000/svg">
<path d="M1 21C0.447715 21 -0.00645391 20.5505 0.0623925 20.0026C0.282756 18.2486 1.0799 16.6064 2.34315 15.3431C3.84344 13.8429 5.87827 13 8 13C10.1217 13 12.1566 13.8429 13.6569 15.3431C14.9201 16.6064 15.7172 18.2486 15.9376 20.0026C16.0065 20.5505 15.5523 21 15 21H1ZM8 12C4.685 12 2 9.315 2 6C2 2.685 4.685 0 8 0C11.315 0 14 2.685 14 6C14 9.315 11.315 12 8 12ZM18 17C18 16.4477 18.4477 16 19 16H21C21.5523 16 22 16.4477 22 17C22 17.5523 21.5523 18 21 18H19C18.4477 18 18 17.5523 18 17ZM15 12C15 11.4477 15.4477 11 16 11H21C21.5523 11 22 11.4477 22 12C22 12.5523 21.5523 13 21 13H16C15.4477 13 15 12.5523 15 12ZM17 7C17 6.44772 17.4477 6 18 6H21C21.5523 6 22 6.44772 22 7C22 7.55228 21.5523 8 21 8H18C17.4477 8 17 7.55228 17 7Z" fill="#1F6ED4"/>
</svg>
