<svg width="24" height="24" viewBox="0 0 24 24" fill="none" xmlns="http://www.w3.org/2000/svg">
<g id="Property 1=&#208;&#146;&#208;&#184;&#208;&#180;&#208;&#181;&#208;&#190;&#209;&#131;&#209;&#128;&#208;&#190;&#208;&#186;" clip-path="url(#clip0_3_3586)">
<path id="Vector" d="M3 3.993C3 3.445 3.445 3 3.993 3H20.007C20.555 3 21 3.445 21 3.993V20.007C20.9997 20.2703 20.895 20.5227 20.7089 20.7089C20.5227 20.895 20.2703 20.9997 20.007 21H3.993C3.72972 20.9997 3.4773 20.895 3.29114 20.7089C3.10497 20.5227 3.00026 20.2703 3 20.007V3.993ZM5 5V19H19V5H5ZM10.622 8.415L15.501 11.667C15.5559 11.7035 15.6009 11.753 15.632 11.8111C15.6631 11.8692 15.6794 11.9341 15.6794 12C15.6794 12.0659 15.6631 12.1308 15.632 12.1889C15.6009 12.247 15.5559 12.2965 15.501 12.333L10.621 15.585C10.5608 15.6249 10.491 15.6477 10.4189 15.6512C10.3468 15.6546 10.2751 15.6384 10.2114 15.6043C10.1477 15.5703 10.0945 15.5197 10.0573 15.4578C10.02 15.396 10.0003 15.3252 10 15.253V8.747C10.0001 8.67465 10.0199 8.60369 10.0572 8.54168C10.0944 8.47967 10.1478 8.42893 10.2116 8.39486C10.2755 8.36079 10.3473 8.34467 10.4196 8.34822C10.4919 8.35177 10.5618 8.37485 10.622 8.415V8.415Z" fill="black"/>
</g>
<defs>
<clipPath id="clip0_3_3586">
<rect width="24" height="24" fill="white"/>
</clipPath>
</defs>
</svg>
