<svg width="263" height="318" viewBox="0 0 263 318" fill="none" xmlns="http://www.w3.org/2000/svg">
<path opacity="0.64" d="M131.435 317.968C204.024 317.968 262.87 306.111 262.87 291.485C262.87 276.859 204.024 265.002 131.435 265.002C58.8454 265.002 0 276.859 0 291.485C0 306.111 58.8454 317.968 131.435 317.968Z" fill="#68CCE9"/>
<path d="M68.429 287.23C70.2739 281.239 75.9204 278.048 85.089 275.36C90.9032 273.681 98.2828 272.897 109.855 270.545C115.502 269.426 119.471 267.186 119.471 267.186V273.625C119.471 273.625 81.1756 281.183 75.1936 291.093C72.2865 295.964 73.181 307.89 86.878 309.122C82.685 309.738 75.8086 308.674 72.1188 304.923C67.5345 300.276 66.3046 294.061 68.429 287.23Z" fill="#282323" stroke="black" stroke-width="4" stroke-miterlimit="10" stroke-linecap="round" stroke-linejoin="round"/>
<path d="M119.471 273.625C119.471 273.625 96.5496 277.88 84.3062 283.143C73.5722 287.79 73.9076 292.605 73.6281 297.532C73.4604 300.388 75.473 307.442 83.6353 308.674C93.3629 310.13 104.824 308.562 119.471 299.212C119.471 276.312 119.471 273.625 119.471 273.625Z" fill="#442C2A"/>
<path opacity="0.37" d="M73.6281 297.532C73.8517 293.557 73.684 289.638 79.2746 285.831C79.051 287.23 78.9951 288.574 78.9392 289.974C78.7715 292.829 85.6479 289.134 93.8102 290.31C102.308 291.597 107.339 301.34 119.471 294.789C119.471 296.189 119.471 297.644 119.471 299.156C104.824 308.506 93.3629 310.018 83.6353 308.618C75.473 307.442 73.4604 300.332 73.6281 297.532Z" fill="#442C2A"/>
<path d="M119.471 273.625C119.471 273.625 96.5496 277.88 84.3062 283.143C73.5722 287.79 73.9076 292.605 73.6281 297.532C73.4604 300.388 75.473 307.442 83.6353 308.674C93.3629 310.13 104.824 308.562 119.471 299.212C119.471 276.312 119.471 273.625 119.471 273.625Z" stroke="black" stroke-width="4" stroke-miterlimit="10" stroke-linecap="round" stroke-linejoin="round"/>
<path d="M98.2267 286.782C96.3818 287.79 96.8291 297.588 101.302 298.932" stroke="black" stroke-width="4" stroke-miterlimit="10" stroke-linecap="round" stroke-linejoin="round"/>
<path d="M105.215 286.054C103.314 288.742 104.656 295.069 108.066 296.636" stroke="black" stroke-width="4" stroke-miterlimit="10" stroke-linecap="round" stroke-linejoin="round"/>
<path d="M111.644 283.815C109.743 286.502 111.085 292.829 114.495 294.397" stroke="black" stroke-width="4" stroke-miterlimit="10" stroke-linecap="round" stroke-linejoin="round"/>
<path d="M177.613 254.812C165.537 263.211 148.374 268.026 130.428 268.026C112.538 268.026 95.3195 263.211 83.2438 254.812C77.7091 250.949 68.4287 242.887 68.4287 232.137C68.4287 221.387 77.7091 213.324 83.2438 209.461C95.3195 201.063 112.483 196.248 130.428 196.248C148.318 196.248 165.537 201.063 177.613 209.461C183.148 213.324 192.428 221.387 192.428 232.137C192.428 242.887 183.148 250.949 177.613 254.812Z" fill="#151E28"/>
<path d="M232.904 241.095C232.681 242.215 232.457 243.279 232.122 244.399C223.4 276.256 181.359 300.444 130.764 300.444C80.0574 300.444 37.9043 276.144 29.3507 244.175C29.1271 243.279 28.9035 242.383 28.7357 241.487C28.5121 239.807 28.568 238.128 28.9035 236.448C30.972 227.042 42.3768 221.611 54.3966 224.298C62.2793 226.034 68.429 230.905 71.1683 236.672C71.4479 237.904 71.8951 239.136 72.3983 240.311C75.3054 247.03 81.1196 252.069 85.033 254.869C96.7174 263.267 113.433 268.082 130.764 268.082C148.151 268.082 164.811 263.267 176.495 254.869C180.464 252.013 186.335 246.918 189.186 240.199C189.633 239.136 190.024 237.96 190.304 236.84C192.987 231.017 199.193 226.146 207.132 224.354C219.151 221.667 230.556 227.154 232.625 236.504C233.016 237.96 233.072 239.527 232.904 241.095Z" fill="#2A3749"/>
<path opacity="0.67" d="M232.625 236.392C232.569 236.112 232.513 235.888 232.401 235.608C232.233 236.504 232.01 237.456 231.73 238.352C223.121 270.209 181.023 294.397 130.484 294.397C79.7777 294.397 37.6247 270.097 29.0711 238.128C28.9592 237.792 28.9033 237.456 28.7915 237.064C28.5679 238.52 28.512 239.975 28.7356 241.375C28.9033 242.271 29.127 243.167 29.3506 244.063C37.9042 276.032 80.0573 300.332 130.764 300.332C181.359 300.332 223.4 276.144 232.121 244.286C232.401 243.223 232.68 242.103 232.904 240.983C233.072 239.527 233.016 237.96 232.625 236.392Z" fill="#151E28"/>
<path d="M232.904 241.095C232.681 242.215 232.457 243.279 232.122 244.399C223.4 276.256 181.359 300.444 130.764 300.444C80.0574 300.444 37.9043 276.144 29.3507 244.175C29.1271 243.279 28.9035 242.383 28.7357 241.487C28.5121 239.807 28.568 238.128 28.9035 236.448C30.972 227.042 42.3768 221.611 54.3966 224.298C62.2793 226.034 68.429 230.905 71.1683 236.672C71.4479 237.904 71.8951 239.136 72.3983 240.311C75.3054 247.03 81.1196 252.069 85.033 254.869C96.7174 263.267 113.433 268.082 130.764 268.082C148.151 268.082 164.811 263.267 176.495 254.869C180.464 252.013 186.335 246.918 189.186 240.199C189.633 239.136 190.024 237.96 190.304 236.84C192.987 231.017 199.193 226.146 207.132 224.354C219.151 221.667 230.556 227.154 232.625 236.504C233.016 237.96 233.072 239.527 232.904 241.095Z" stroke="black" stroke-width="4" stroke-miterlimit="10" stroke-linecap="round" stroke-linejoin="round"/>
<path d="M131.435 250.949C159.254 250.949 181.806 243.279 181.806 233.817C181.806 224.354 159.254 216.684 131.435 216.684C103.615 216.684 81.0635 224.354 81.0635 233.817C81.0635 243.279 103.615 250.949 131.435 250.949Z" fill="#9B2121"/>
<path d="M131.435 250.949C159.254 250.949 181.806 243.279 181.806 233.817C181.806 224.354 159.254 216.684 131.435 216.684C103.615 216.684 81.0635 224.354 81.0635 233.817C81.0635 243.279 103.615 250.949 131.435 250.949Z" stroke="black" stroke-width="4" stroke-miterlimit="10" stroke-linecap="round" stroke-linejoin="round"/>
<path d="M188.794 196.416H72.7336C63.8445 196.416 56.9681 188.633 58.0862 179.787L63.2296 138.635C64.6831 126.877 74.6344 118.087 86.4864 118.087H175.153C186.949 118.087 196.901 126.877 198.41 138.635L203.553 179.787C204.56 188.633 197.683 196.416 188.794 196.416Z" fill="#F1534D"/>
<path d="M188.794 196.416H72.7336C63.8445 196.416 56.9681 188.633 58.0862 179.787L63.2296 138.635C64.6831 126.877 74.6344 118.087 86.4864 118.087H175.153C186.949 118.087 196.901 126.877 198.41 138.635L203.553 179.787C204.56 188.633 197.683 196.416 188.794 196.416Z" stroke="black" stroke-width="4" stroke-miterlimit="10" stroke-linecap="round" stroke-linejoin="round"/>
<path d="M85.3124 152.856L84.1943 166.909" stroke="black" stroke-width="4" stroke-miterlimit="10" stroke-linecap="round" stroke-linejoin="round"/>
<path d="M177.054 152.856L178.172 166.909" stroke="black" stroke-width="4" stroke-miterlimit="10" stroke-linecap="round" stroke-linejoin="round"/>
<path d="M188.794 196.416H72.7336C63.8445 196.416 56.9681 188.633 58.0862 179.787L63.2296 138.635C64.6831 126.877 74.6344 118.087 86.4864 118.087H175.153C186.949 118.087 196.901 126.877 198.41 138.635L203.553 179.787C204.56 188.633 197.683 196.416 188.794 196.416Z" fill="#F1534D"/>
<g opacity="0.24">
<path opacity="0.24" d="M63.1735 143.002C64.6271 131.244 74.5784 122.454 86.4304 122.454H175.097C186.893 122.454 196.845 131.244 198.354 143.002L203.442 183.818C203.609 182.53 203.665 181.187 203.497 179.787L198.354 138.635C196.901 126.877 186.949 118.087 175.097 118.087H86.4304C74.6343 118.087 64.683 126.877 63.1735 138.635L58.0302 179.787C57.8625 181.131 57.8625 182.474 58.0861 183.818L63.1735 143.002Z" fill="#9B2121"/>
<path opacity="0.24" d="M91.5739 122.454C91.5739 122.454 98.4503 123.686 99.0094 127.493C99.4566 130.572 99.4007 132.588 100.575 133.82C101.749 135.052 104.488 137.571 110.023 137.571C106.948 134.492 106.892 123.686 106.054 123.686C105.271 123.686 103.258 118.311 103.258 118.311L100.575 117.079C100.631 117.079 90.7353 118.311 91.5739 122.454Z" fill="#9B2121"/>
<path opacity="0.24" d="M165.034 122.454C165.034 122.454 158.158 123.686 157.598 127.493C157.151 130.572 157.207 132.588 156.033 133.82C154.859 134.996 152.12 137.571 146.585 137.571C149.66 134.492 149.716 123.686 150.554 123.686C151.337 123.686 153.35 118.311 153.35 118.311L156.033 117.079C155.977 117.079 165.873 118.311 165.034 122.454Z" fill="#9B2121"/>
</g>
<path d="M188.794 196.416H72.7336C63.8445 196.416 56.9681 188.633 58.0862 179.787L63.2296 138.635C64.6831 126.877 74.6344 118.087 86.4864 118.087H175.153C186.949 118.087 196.901 126.877 198.41 138.635L203.553 179.787C204.56 188.633 197.683 196.416 188.794 196.416Z" stroke="black" stroke-width="4" stroke-miterlimit="10" stroke-linecap="round" stroke-linejoin="round"/>
<path d="M85.3124 152.856L84.1943 166.909" stroke="black" stroke-width="4" stroke-miterlimit="10" stroke-linecap="round" stroke-linejoin="round"/>
<path d="M177.054 152.856L178.172 166.909" stroke="black" stroke-width="4" stroke-miterlimit="10" stroke-linecap="round" stroke-linejoin="round"/>
<path d="M115.837 94.6833L97.444 93.7314L88.8345 94.6833C88.8345 94.6833 83.0762 98.9944 83.0762 100.17C83.0762 101.346 83.6352 110.92 83.6352 110.92C83.6352 110.92 97.2204 112.768 98.6739 114.167C100.127 115.567 108.737 123.63 108.737 123.63L117.067 120.382L121.428 108.737L115.837 94.6833Z" fill="#9B2121"/>
<path d="M112.595 87.5728H91.3504C82.7968 87.5728 75.8086 94.5154 75.8086 103.138C75.8086 111.704 82.7409 118.703 91.3504 118.703H94.1457C98.6741 118.703 102.308 122.342 102.308 126.877V127.717C102.308 133.148 106.725 137.571 112.147 137.571V127.493C112.259 127.493 112.371 127.605 112.371 127.717V126.877C112.371 116.799 104.209 108.625 94.1457 108.625H91.3504C88.3315 108.625 85.8717 106.161 85.8717 103.138C85.8717 100.114 88.3315 97.6508 91.3504 97.6508H112.595V87.5728Z" fill="#F1534D"/>
<path d="M111.309 120.55C108.737 113.608 102.029 108.569 94.2019 108.569H91.4066C88.3877 108.569 85.9278 106.105 85.9278 103.082C85.9278 100.058 88.3877 97.5949 91.4066 97.5949H112.651V87.5168H91.4066C82.853 87.5168 75.8647 94.4595 75.8647 103.082C75.8647 111.648 82.7971 118.647 91.4066 118.647H94.2019C98.7303 118.647 102.364 122.286 102.364 126.821V127.661C102.364 133.092 106.781 137.515 112.204 137.515" stroke="black" stroke-width="4" stroke-miterlimit="10" stroke-linecap="round" stroke-linejoin="round"/>
<path d="M140.156 94.6835L158.549 93.7317L167.159 94.6835C167.159 94.6835 172.917 98.9947 172.917 100.17C172.917 101.346 172.358 110.92 172.358 110.92C172.358 110.92 158.773 112.768 157.319 114.168C155.866 115.623 147.256 123.63 147.256 123.63L138.926 120.383L134.565 108.737L140.156 94.6835Z" fill="#9B2121"/>
<path d="M143.398 87.5728H164.643C173.196 87.5728 180.185 94.5154 180.185 103.138C180.185 111.704 173.252 118.703 164.643 118.703H161.847C157.319 118.703 153.685 122.342 153.685 126.877V127.717C153.685 133.148 149.269 137.571 143.846 137.571V127.493C143.734 127.493 143.622 127.605 143.622 127.717V126.877C143.622 116.799 151.784 108.625 161.847 108.625H164.643C167.662 108.625 170.122 106.161 170.122 103.138C170.122 100.114 167.662 97.6508 164.643 97.6508H143.398V87.5728Z" fill="#F1534D"/>
<path d="M144.74 120.55C147.312 113.608 154.021 108.569 161.847 108.569H164.643C167.662 108.569 170.122 106.105 170.122 103.082C170.122 100.058 167.662 97.5949 164.643 97.5949H143.398V87.5168H164.643C173.196 87.5168 180.185 94.4595 180.185 103.082C180.185 111.648 173.252 118.647 164.643 118.647H161.847C157.319 118.647 153.685 122.286 153.685 126.821V127.661C153.685 133.092 149.269 137.515 143.846 137.515" stroke="black" stroke-width="4" stroke-miterlimit="10" stroke-linecap="round" stroke-linejoin="round"/>
<path d="M129.031 129.621C141.073 129.621 150.834 119.845 150.834 107.785C150.834 95.7254 141.073 85.9492 129.031 85.9492C116.989 85.9492 107.228 95.7254 107.228 107.785C107.228 119.845 116.989 129.621 129.031 129.621Z" fill="#F46262"/>
<path d="M108.178 101.346C114.216 105.209 121.372 107.505 129.031 107.505C136.69 107.505 143.846 105.265 149.884 101.346C147.145 92.3878 138.871 85.8931 129.031 85.8931C119.248 85.9491 110.918 92.4438 108.178 101.346Z" fill="#F1534D"/>
<path d="M129.031 129.621C141.073 129.621 150.834 119.845 150.834 107.785C150.834 95.7254 141.073 85.9492 129.031 85.9492C116.989 85.9492 107.228 95.7254 107.228 107.785C107.228 119.845 116.989 129.621 129.031 129.621Z" stroke="black" stroke-width="4" stroke-miterlimit="10" stroke-linecap="round" stroke-linejoin="round"/>
<path d="M129.031 120.438C121.931 120.438 116.172 114.671 116.172 107.561V97.9307C116.172 96.1391 117.626 94.6833 119.415 94.6833H138.702C140.491 94.6833 141.945 96.1391 141.945 97.9307V107.561C141.889 114.671 136.131 120.438 129.031 120.438Z" fill="#FFC897"/>
<path d="M138.702 94.6833H119.415C117.626 94.6833 116.172 96.2511 116.172 98.1547V106.049C120.198 107.561 124.502 108.401 129.031 108.401C133.559 108.401 137.864 107.561 141.889 106.049V98.1547C141.889 96.2511 140.436 94.6833 138.702 94.6833Z" fill="#E5A973"/>
<path d="M129.031 120.438C121.931 120.438 116.172 114.671 116.172 107.561V97.9307C116.172 96.1391 117.626 94.6833 119.415 94.6833H138.702C140.491 94.6833 141.945 96.1391 141.945 97.9307V107.561C141.889 114.671 136.131 120.438 129.031 120.438Z" stroke="black" stroke-width="4" stroke-miterlimit="10" stroke-linecap="round" stroke-linejoin="round"/>
<path d="M142.952 265.506H130.988V303.747H142.952V265.506Z" fill="#607691"/>
<path d="M142.952 265.506H130.988V303.747H142.952V265.506Z" stroke="black" stroke-width="4" stroke-miterlimit="10" stroke-linecap="round" stroke-linejoin="round"/>
<path d="M72.3422 240.199C71.8391 239.024 71.4477 237.848 71.1123 236.56C71.7273 237.792 72.1186 238.968 72.3422 240.199Z" stroke="black" stroke-width="4" stroke-miterlimit="10" stroke-linecap="round" stroke-linejoin="round"/>
<path d="M189.242 240.087C189.465 238.912 189.857 237.792 190.36 236.728C190.08 237.904 189.689 239.024 189.242 240.087Z" stroke="black" stroke-width="4" stroke-miterlimit="10" stroke-linecap="round" stroke-linejoin="round"/>
<path d="M189.074 237.4H72.51C68.3729 237.4 64.8509 234.321 64.2918 230.177L57.024 173.181C56.4091 168.253 60.2666 163.83 65.2422 163.83H196.342C201.317 163.83 205.175 168.197 204.56 173.181L197.292 230.177C196.733 234.265 193.211 237.4 189.074 237.4Z" fill="#B5B5B5"/>
<path opacity="0.21" d="M197.236 226.594C196.733 230.737 193.211 233.817 189.018 233.817H72.5099C68.3729 233.817 64.8508 230.737 64.2918 226.594L57.1358 170.437C56.9681 171.333 56.9122 172.229 57.024 173.18L64.2918 230.177C64.7949 234.321 68.317 237.4 72.5099 237.4H189.074C193.211 237.4 196.733 234.321 197.292 230.177L204.56 173.18C204.672 172.229 204.616 171.333 204.448 170.437L197.236 226.594Z" fill="#7E7E7E"/>
<path opacity="0.21" d="M57.0799 173.684C57.7508 169.877 61.1052 166.854 65.1863 166.854H196.286C200.423 166.854 203.721 169.821 204.392 173.684L204.448 173.124C205.063 168.197 201.205 163.774 196.23 163.774H65.2422C60.2666 163.774 56.4091 168.141 57.024 173.124L57.0799 173.684Z" fill="#7E7E7E"/>
<path d="M189.074 237.4H72.51C68.3729 237.4 64.8509 234.321 64.2918 230.177L57.024 173.181C56.4091 168.253 60.2666 163.83 65.2422 163.83H196.342C201.317 163.83 205.175 168.197 204.56 173.181L197.292 230.177C196.733 234.265 193.211 237.4 189.074 237.4Z" stroke="black" stroke-width="4" stroke-miterlimit="10" stroke-linecap="round" stroke-linejoin="round"/>
<path opacity="0.66" d="M136.299 197.144C133.783 197.144 131.77 195.128 131.77 192.609C131.77 192.441 131.77 192.273 131.826 192.105C131.379 192.049 130.932 191.993 130.484 191.993C126.403 191.993 123.049 195.352 123.049 199.439C123.049 203.526 126.403 206.886 130.484 206.886C134.565 206.886 137.92 203.526 137.92 199.439C137.92 198.599 137.752 197.76 137.528 196.976C137.137 197.032 136.746 197.144 136.299 197.144Z" fill="#B5B5B5"/>
<path d="M193.993 287.23C192.148 281.239 186.502 278.048 177.333 275.36C171.519 273.681 164.14 272.897 152.567 270.545C146.921 269.426 142.951 267.186 142.951 267.186V273.625C142.951 273.625 181.247 281.183 187.229 291.093C190.136 295.964 189.241 307.89 175.544 309.122C179.737 309.738 186.614 308.674 190.304 304.923C194.888 300.276 196.118 294.061 193.993 287.23Z" fill="#282323" stroke="black" stroke-width="4" stroke-miterlimit="10" stroke-linecap="round" stroke-linejoin="round"/>
<path d="M142.951 273.625C142.951 273.625 165.873 277.88 178.116 283.143C188.85 287.79 188.515 292.605 188.794 297.532C188.962 300.388 186.949 307.442 178.787 308.674C169.059 310.13 157.599 308.562 142.951 299.212C142.951 276.312 142.951 273.625 142.951 273.625Z" fill="#442C2A"/>
<path opacity="0.37" d="M188.794 297.532C188.57 293.557 188.738 289.638 183.148 285.831C183.371 287.23 183.427 288.574 183.483 289.974C183.651 292.829 181.638 299.884 173.476 301.116C164.978 302.403 155.083 301.34 142.951 294.789C142.951 296.189 142.951 297.644 142.951 299.156C157.599 308.506 169.059 310.018 178.787 308.618C187.005 307.442 188.962 300.332 188.794 297.532Z" fill="#442C2A"/>
<path d="M142.951 273.625C142.951 273.625 165.873 277.88 178.116 283.143C188.85 287.79 188.515 292.605 188.794 297.532C188.962 300.388 186.949 307.442 178.787 308.674C169.059 310.13 157.599 308.562 142.951 299.212C142.951 276.312 142.951 273.625 142.951 273.625Z" stroke="black" stroke-width="4" stroke-miterlimit="10" stroke-linecap="round" stroke-linejoin="round"/>
<path d="M164.195 286.782C166.04 287.79 165.593 297.588 161.121 298.932" stroke="black" stroke-width="4" stroke-miterlimit="10" stroke-linecap="round" stroke-linejoin="round"/>
<path d="M157.207 286.054C159.108 288.742 157.766 295.069 154.356 296.636" stroke="black" stroke-width="4" stroke-miterlimit="10" stroke-linecap="round" stroke-linejoin="round"/>
<path d="M150.778 283.815C152.679 286.502 151.337 292.829 147.927 294.397" stroke="black" stroke-width="4" stroke-miterlimit="10" stroke-linecap="round" stroke-linejoin="round"/>
<path d="M109.408 131.86V161.646" stroke="black" stroke-width="6" stroke-miterlimit="10" stroke-linecap="round" stroke-linejoin="round"/>
<path d="M147.145 131.86V152.856" stroke="black" stroke-width="6" stroke-miterlimit="10" stroke-linecap="round" stroke-linejoin="round"/>
<path d="M147.145 159.183C149.707 159.183 151.785 157.102 151.785 154.536C151.785 151.969 149.707 149.889 147.145 149.889C144.582 149.889 142.504 151.969 142.504 154.536C142.504 157.102 144.582 159.183 147.145 159.183Z" fill="black"/>
<path d="M147.144 155.88C148.194 155.88 149.045 155.027 149.045 153.976C149.045 152.925 148.194 152.073 147.144 152.073C146.095 152.073 145.244 152.925 145.244 153.976C145.244 155.027 146.095 155.88 147.144 155.88Z" fill="#7E7E7E"/>
<path d="M129.031 104.146C109.575 104.146 93.7539 88.3566 93.7539 68.8164V27.8323H164.307V68.8164C164.307 88.3006 148.542 104.146 129.031 104.146Z" fill="#FFC897"/>
<path d="M129.031 99.2745C109.575 99.2745 93.7539 83.4855 93.7539 63.9453V68.8164C93.7539 88.3006 109.519 104.146 129.031 104.146C148.486 104.146 164.307 88.3566 164.307 68.8164V63.9453C164.307 83.4295 148.542 99.2745 129.031 99.2745Z" fill="#E5A973"/>
<path d="M129.031 104.146C109.575 104.146 93.7539 88.3566 93.7539 68.8164V27.8323H164.307V68.8164C164.307 88.3006 148.542 104.146 129.031 104.146Z" stroke="black" stroke-width="4" stroke-miterlimit="10" stroke-linecap="round" stroke-linejoin="round"/>
<path d="M164.587 31.9196C164.475 30.016 164.363 28.0564 164.307 26.1527C140.827 27.2725 117.235 27.1046 93.81 25.033C93.6423 27.2165 93.5305 29.4001 93.3628 31.5837C94.425 32.5355 95.5431 33.5433 96.6053 34.4951C97.4998 34.943 98.6739 35.5589 99.7361 36.1188C104.432 38.5824 110.973 41.7177 117.235 42.9495C119.527 43.3974 121.931 43.6214 124.391 43.5654C134.957 43.4534 143.846 39.2542 147.592 37.5186C148.151 37.2386 148.598 37.0147 148.877 36.9587C149.101 36.8467 149.325 36.7907 149.66 36.7907C150.331 36.7907 151.114 36.9587 152.064 37.1266C153.294 37.4066 154.748 37.6865 156.369 37.5745C158.214 37.4626 159.891 36.9027 161.512 35.8389C162.463 34.4951 163.525 33.2074 164.587 31.9196Z" fill="#E5A973"/>
<path d="M147.591 10.6437C147.591 10.6437 119.359 -8.00071 95.9902 12.8273C91.6296 16.6905 89.8965 22.2334 89.8965 27.3285V54.3152H93.8099V34.719C93.8099 33.2633 94.8162 32.1435 96.0461 32.1435C98.0587 32.1435 108.96 37.9664 118.185 39.5901C132.105 41.9976 144.796 35.5589 147.535 34.607C152.232 32.9274 156.033 38.7503 161.959 32.1995H162.183C163.413 32.1995 164.419 33.3753 164.419 34.775V54.3712H168.333V27.4964C168.221 20.8897 160.617 4.3169 147.591 10.6437Z" fill="#231A17"/>
<g opacity="0.34">
<path opacity="0.34" d="M93.7542 50.6201H89.8408V54.3154H93.7542V50.6201Z" fill="#231A17"/>
<path opacity="0.34" d="M168.221 50.6201H164.308V54.3154H168.221V50.6201Z" fill="#231A17"/>
</g>
<path d="M147.591 10.6437C147.591 10.6437 119.359 -8.00071 95.9902 12.8273C91.6296 16.6905 89.8965 22.2334 89.8965 27.3285V54.3152H93.8099V34.719C93.8099 33.2633 94.8162 32.1435 96.0461 32.1435C98.0587 32.1435 108.96 37.9664 118.185 39.5901C132.105 41.9976 144.796 35.5589 147.535 34.607C152.232 32.9274 156.033 38.7503 161.959 32.1995H162.183C163.413 32.1995 164.419 33.3753 164.419 34.775V54.3712H168.333V27.4964C168.221 20.8897 160.617 4.3169 147.591 10.6437Z" stroke="black" stroke-width="4" stroke-miterlimit="10" stroke-linecap="round" stroke-linejoin="round"/>
<path d="M123.72 28.8401C123.72 28.8401 93.4189 30.7997 86.9897 14.6748" stroke="black" stroke-width="4" stroke-miterlimit="10" stroke-linecap="round" stroke-linejoin="round"/>
<path d="M128.024 24.9769C128.024 24.9769 98.8415 23.1293 91.2383 7.00439" stroke="black" stroke-width="4" stroke-miterlimit="10" stroke-linecap="round" stroke-linejoin="round"/>
<path d="M164.308 49.9482V68.3127C168.221 68.3127 171.352 64.2255 171.352 59.1305C171.352 54.0354 168.221 49.9482 164.308 49.9482Z" fill="#FFC897"/>
<path d="M164.308 50.9558V67.2487C166.6 65.7369 168.165 62.6576 168.165 59.0742C168.165 55.5469 166.6 52.4675 164.308 50.9558Z" fill="#E5A973"/>
<path d="M164.308 49.9482V68.3127C168.221 68.3127 171.352 64.2255 171.352 59.1305C171.352 54.0354 168.221 49.9482 164.308 49.9482Z" stroke="black" stroke-width="4" stroke-miterlimit="10" stroke-linecap="round" stroke-linejoin="round"/>
<path d="M93.81 49.9482V68.3127C89.8966 68.3127 86.7659 64.2255 86.7659 59.1305C86.71 54.0354 89.8966 49.9482 93.81 49.9482Z" fill="#FFC897"/>
<path d="M93.8102 51.2917C91.7975 52.9154 90.3999 55.8269 90.3999 59.1302C90.3999 62.4336 91.7416 65.345 93.8102 66.9687V51.2917Z" fill="#E5A973"/>
<path d="M93.81 49.9482V68.3127C89.8966 68.3127 86.7659 64.2255 86.7659 59.1305C86.71 54.0354 89.8966 49.9482 93.81 49.9482Z" stroke="black" stroke-width="4" stroke-miterlimit="10" stroke-linecap="round" stroke-linejoin="round"/>
<path d="M127.577 64.8972L125.229 72.5677C125.229 73.4076 127.968 72.7357 130.764 73.4076" stroke="black" stroke-width="4" stroke-miterlimit="10" stroke-linecap="round" stroke-linejoin="round"/>
<path d="M140.771 79.2305C141.61 85.0534 134.118 90.2044 128.248 89.1406" stroke="black" stroke-width="3" stroke-miterlimit="10" stroke-linecap="round" stroke-linejoin="round"/>
<path d="M116.34 58.4023C117.637 58.4023 118.688 57.2743 118.688 55.8828C118.688 54.4913 117.637 53.3633 116.34 53.3633C115.043 53.3633 113.992 54.4913 113.992 55.8828C113.992 57.2743 115.043 58.4023 116.34 58.4023Z" stroke="black" stroke-width="2" stroke-miterlimit="10" stroke-linecap="round" stroke-linejoin="round"/>
<path d="M116.34 58.4023C117.637 58.4023 118.688 57.2743 118.688 55.8828C118.688 54.4913 117.637 53.3633 116.34 53.3633C115.043 53.3633 113.992 54.4913 113.992 55.8828C113.992 57.2743 115.043 58.4023 116.34 58.4023Z" fill="black"/>
<path d="M108.234 50.564C109.408 49.1642 112.147 48.2124 115.39 48.2124C117.962 48.2124 120.198 48.8283 121.595 49.7801" stroke="black" stroke-width="3" stroke-miterlimit="10" stroke-linecap="round" stroke-linejoin="round"/>
<path d="M142.057 58.4023C143.354 58.4023 144.405 57.2743 144.405 55.8828C144.405 54.4913 143.354 53.3633 142.057 53.3633C140.76 53.3633 139.709 54.4913 139.709 55.8828C139.709 57.2743 140.76 58.4023 142.057 58.4023Z" stroke="black" stroke-width="2" stroke-miterlimit="10" stroke-linecap="round" stroke-linejoin="round"/>
<path d="M142.057 58.4023C143.354 58.4023 144.405 57.2743 144.405 55.8828C144.405 54.4913 143.354 53.3633 142.057 53.3633C140.76 53.3633 139.709 54.4913 139.709 55.8828C139.709 57.2743 140.76 58.4023 142.057 58.4023Z" fill="black"/>
<path d="M150.163 50.564C148.989 49.1642 146.25 48.2124 143.007 48.2124C140.436 48.2124 138.199 48.8283 136.802 49.7801" stroke="black" stroke-width="3" stroke-miterlimit="10" stroke-linecap="round" stroke-linejoin="round"/>
</svg>
