<svg width="24" height="24" viewBox="0 0 24 24" fill="none" xmlns="http://www.w3.org/2000/svg">
<g clip-path="url(#clip0_9901_1293)">
<path d="M13 18V20H16C16.5523 20 17 20.4477 17 21C17 21.5523 16.5523 22 16 22H8.00004C7.44776 22 7.00004 21.5523 7.00004 21C7.00004 20.4477 7.44776 20 8.00004 20H11V18H2.99204C2.86073 17.9992 2.73086 17.9725 2.60988 17.9215C2.4889 17.8704 2.37919 17.7959 2.28703 17.7024C2.19488 17.6088 2.12209 17.498 2.07284 17.3763C2.02359 17.2546 1.99885 17.1243 2.00004 16.993V4.007C2.00004 3.451 2.45504 3 2.99204 3H21.008C21.556 3 22 3.449 22 4.007V16.993C22 17.549 21.545 18 21.008 18H13Z" fill="#1F6ED4"/>
</g>
<defs>
<clipPath id="clip0_9901_1293">
<rect width="24" height="24" fill="white"/>
</clipPath>
</defs>
</svg>
